<?xml version="1.0" encoding="UTF-8"?>
<svg version="1.1" xmlns="http://www.w3.org/2000/svg" width="500" height="500">
<path d="M0 0 C0.87090271 0.00054382 1.74180542 0.00108765 2.63909912 0.00164795 C52.26969284 0.14331041 102.16834386 16.59937692 140.6875 48.375 C141.23293457 48.8189209 141.77836914 49.2628418 142.34033203 49.72021484 C187.98225334 87.02535191 219.12522085 141.13484763 225.16967773 200.20654297 C226.98335158 222.19486512 226.48714916 244.64184189 222.6875 266.375 C222.55891602 267.14021973 222.43033203 267.90543945 222.29785156 268.69384766 C216.05114857 304.51304661 199.59688828 338.3344869 176.6875 366.375 C176.27209961 366.89191406 175.85669922 367.40882813 175.42871094 367.94140625 C164.02732981 382.09964308 151.29525095 394.56106384 136.6875 405.375 C135.74261719 406.09171875 134.79773438 406.8084375 133.82421875 407.546875 C107.98647853 426.84104859 78.16742981 440.09630189 46.625 446.5625 C45.87089844 446.71750977 45.11679687 446.87251953 44.33984375 447.03222656 C29.88516781 449.83404086 15.74802762 450.75090976 1.0625 450.6875 C0.18387299 450.68567719 -0.69475403 450.68385437 -1.6000061 450.68197632 C-15.03911035 450.63510655 -28.11223445 450.09427612 -41.3125 447.375 C-42.15619141 447.20871094 -42.99988281 447.04242188 -43.86914062 446.87109375 C-102.83894894 434.98024368 -153.79661883 399.74446619 -187.375 350.1875 C-212.18280685 312.78945418 -224.52920763 270.40154295 -224.5625 225.625 C-224.56317474 224.80652588 -224.56384949 223.98805176 -224.56454468 223.14477539 C-224.48887209 165.15835688 -201.66694028 109.43010457 -160.92041016 68.01367188 C-159.42333007 66.48795041 -157.94936739 64.94341604 -156.48046875 63.390625 C-146.86345601 53.42159861 -135.84644637 45.01436708 -124.3125 37.375 C-123.78060059 37.01615723 -123.24870117 36.65731445 -122.70068359 36.28759766 C-96.82916549 18.94134702 -66.20547622 6.79768184 -35.3125 2.375 C-33.60622437 2.11662354 -33.60622437 2.11662354 -31.86547852 1.85302734 C-21.22521161 0.36321751 -10.73656736 -0.02540987 0 0 Z " fill="#9CBBDA" transform="translate(249.3125,24.625)"/>
<path d="M0 0 C0.71220703 -0.00773437 1.42441406 -0.01546875 2.15820312 -0.0234375 C15.79330552 0.02609966 27.37361925 6.14640031 37.08203125 15.4765625 C46.57082081 26.08607523 50.19138092 37.562729 49.83984375 51.58203125 C49.04616763 62.07867737 44.7662364 70.28246522 39.5625 79.25 C40.98015314 79.21667909 42.39697371 79.14697496 43.8125 79.0625 C44.60140625 79.02769531 45.3903125 78.99289062 46.203125 78.95703125 C48.81539918 78.44083651 48.81539918 78.44083651 50.30688477 75.7442627 C52.5625 73.25 52.5625 73.25 55.5222168 72.62854004 C57.24952026 72.6316217 57.24952026 72.6316217 59.01171875 72.63476562 C60.97395386 72.6208075 60.97395386 72.6208075 62.97583008 72.60656738 C64.40056437 72.62215418 65.82528805 72.63873923 67.25 72.65625 C68.71443585 72.65796158 70.17887476 72.65789494 71.64331055 72.65612793 C74.71009701 72.65778039 77.77615179 72.67646306 80.84277344 72.70800781 C84.77052381 72.74768617 88.69731612 72.75205286 92.62522888 72.74454498 C95.64848584 72.74147299 98.67152805 72.75360377 101.69473267 72.77067566 C103.14277804 72.77769871 104.59084775 72.78083103 106.03890991 72.77998352 C108.06376841 72.7817844 110.08857173 72.80545041 112.11328125 72.83007812 C113.84058472 72.84270691 113.84058472 72.84270691 115.6027832 72.85559082 C118.85630811 73.2891526 120.29754527 73.89380301 122.5625 76.25 C122.5625 77.24 122.5625 78.23 122.5625 79.25 C126.0275 78.755 126.0275 78.755 129.5625 78.25 C128.88845129 74.15209022 127.59826739 70.5403118 126.0625 66.6875 C121.37206078 54.89322695 120.55359303 41.97284558 125.23828125 29.95703125 C131.26387474 17.6392251 141.13439453 7.03834692 154.25 2.5 C166.96594635 -1.49843285 180.5296399 -1.15307183 192.51953125 4.69140625 C205.45989174 11.70687212 214.4438584 21.74103203 218.95166016 35.81445312 C219.97064177 39.87734706 220.09419905 43.82669836 220.0625 48 C220.05750488 48.87180908 220.05250977 49.74361816 220.04736328 50.6418457 C219.7448251 61.93695238 215.56117992 71.45549573 208.5625 80.25 C208.03527344 80.92546875 207.50804687 81.6009375 206.96484375 82.296875 C200.58662721 89.5301931 189.30622589 96.15906137 179.5625 97.25 C176.70635241 97.37659129 173.85857379 97.38972227 171 97.375 C170.24525391 97.37886719 169.49050781 97.38273437 168.71289062 97.38671875 C165.15925207 97.38045683 161.98003192 97.20795536 158.5625 96.25 C158.748125 96.86875 158.93375 97.4875 159.125 98.125 C159.5625 100.25 159.5625 100.25 158.5625 102.25 C159.408125 102.765625 160.25375 103.28125 161.125 103.8125 C163.5625 106.25 163.5625 106.25 163.6875 109.6875 C162.36865201 113.86385195 160.88851507 115.45312369 157.5625 118.25 C156.93945984 118.94636566 156.31641968 119.64273132 155.67449951 120.36019897 C150.71440107 123.37228143 145.7143324 122.8227837 140.02050781 122.79931641 C138.746763 122.80953827 137.47301819 122.81976013 136.16067505 122.83029175 C132.67275764 122.85703643 129.18527415 122.85823279 125.69727421 122.85316515 C122.78006101 122.85102215 119.86293495 122.86080209 116.94574046 122.87037599 C110.05816145 122.89255647 103.17080056 122.8934484 96.28320312 122.88134766 C89.19329488 122.86928217 82.10418187 122.89385474 75.0144093 122.93648779 C68.91565326 122.97180421 62.81714931 122.98370896 56.71829486 122.97721231 C53.081012 122.97359776 49.44429571 122.97874375 45.80710602 123.00664139 C41.74490925 123.03663281 37.6843119 123.01778696 33.62207031 122.99462891 C31.83094315 123.01756012 31.83094315 123.01756012 30.00363159 123.04095459 C22.35942972 122.94484754 17.23943426 121.53123354 11.5625 116.25 C9.57507953 113.89072373 8.63746004 112.76222693 8.1875 109.6875 C8.5625 107.25 8.5625 107.25 9.6875 105.4375 C12.32682347 103.76592847 14.50066629 104.1168768 17.5625 104.25 C17.8925 103.92 18.2225 103.59 18.5625 103.25 C16.5825 103.25 14.6025 103.25 12.5625 103.25 C13.0575 101.27 13.0575 101.27 13.5625 99.25 C14.2225 99.25 14.8825 99.25 15.5625 99.25 C16.0575 97.27 16.0575 97.27 16.5625 95.25 C15.41523438 95.57355469 14.26796875 95.89710938 13.0859375 96.23046875 C8.74044452 97.31158458 4.65256308 97.59824093 0.1875 97.5625 C-0.55636963 97.55686035 -1.30023926 97.5512207 -2.06665039 97.54541016 C-14.38073014 97.27453527 -24.615642 92.20859708 -33.7734375 84.02734375 C-37.1242005 80.44847716 -39.76565856 76.34588358 -42.4375 72.25 C-43.0975 71.26 -43.7575 70.27 -44.4375 69.25 C-49.2473159 58.1741854 -49.80045736 41.90088641 -45.4375 30.625 C-38.05609192 16.09026107 -27.61446077 6.41542043 -12.16015625 1.12890625 C-7.99149383 0.14469949 -4.25967437 -0.04600908 0 0 Z " fill="#98D4F8" transform="translate(164.4375,261.75)"/>
<path d="M0 0 C5.95703125 -0.48828125 5.95703125 -0.48828125 8 0 C8.42506836 0.82172699 8.85013672 1.64345398 9.28808594 2.49008179 C10.74881822 5.22446122 10.74881822 5.22446122 13.46655273 5.63491821 C14.44567627 5.63889618 15.4247998 5.64287415 16.43359375 5.64697266 C18.10047241 5.67061386 18.10047241 5.67061386 19.80102539 5.69473267 C21.00106201 5.68461151 22.20109863 5.67449036 23.4375 5.6640625 C24.66911865 5.66884613 25.9007373 5.67362976 27.16967773 5.67855835 C30.44376554 5.68283634 33.71667006 5.66269508 36.99060059 5.63476562 C38.99834972 5.62500802 41.0050063 5.63472815 43.01269531 5.65185547 C46.86314884 5.68268566 50.71197974 5.67901799 54.5625 5.6640625 C56.36255493 5.67924423 56.36255493 5.67924423 58.19897461 5.69473267 C59.31022705 5.67897186 60.42147949 5.66321106 61.56640625 5.64697266 C63.03509155 5.64100571 63.03509155 5.64100571 64.53344727 5.63491821 C67.25125046 5.22566947 67.25125046 5.22566947 68.69824219 2.49008179 C69.12782227 1.6683548 69.55740234 0.84662781 70 0 C72.26171875 -0.48828125 72.26171875 -0.48828125 74.6875 -0.3125 C75.49574219 -0.26738281 76.30398438 -0.22226563 77.13671875 -0.17578125 C77.75160156 -0.11777344 78.36648438 -0.05976563 79 0 C78.855625 0.53625 78.71125 1.0725 78.5625 1.625 C75.19130509 15.85893408 75.77329983 30.99523693 83.4375 43.74609375 C90.74767501 54.29102121 100.01075597 61.47073003 112 66 C112.3125 69.25 112.3125 69.25 112 73 C111.18144531 73.57363281 110.36289062 74.14726562 109.51953125 74.73828125 C106.63125924 76.86465828 106.63125924 76.86465828 106.3359375 80.71484375 C106.32272107 82.12239401 106.33651998 83.53041376 106.375 84.9375 C106.35566406 85.64068359 106.33632813 86.34386719 106.31640625 87.06835938 C106.35416628 91.09735416 106.75901443 92.73846527 109.51953125 95.734375 C110.33808594 96.48203125 111.15664063 97.2296875 112 98 C112.62296556 100.85567413 112.25085388 103.03992426 112 106 C111.31035156 106.20753906 110.62070312 106.41507812 109.91015625 106.62890625 C97.2785898 110.77011939 87.28904995 119.24748855 81.125 131.125 C75.45440219 142.90239545 75.13021895 156.05826673 79.375 168.3125 C80.51628438 171.39930718 81.66630603 174.36005399 83.1875 177.27734375 C84.24974541 179.5295083 83.81854722 180.70806779 83 183 C80.69 183 78.38 183 76 183 C75.71125 182.360625 75.4225 181.72125 75.125 181.0625 C74.17176549 178.84793921 74.17176549 178.84793921 72 178 C69.92826334 177.88274505 67.8527558 177.83021274 65.77783203 177.80712891 C64.46952423 177.79106598 63.16121643 177.77500305 61.81326294 177.75845337 C60.37811938 177.74696777 58.94296858 177.73635892 57.5078125 177.7265625 C56.78649014 177.72123882 56.06516777 177.71591515 55.32198715 177.71043015 C51.50487073 177.68370697 47.68778694 177.66432849 43.87060547 177.64990234 C39.92698548 177.63324545 35.98419977 177.58845824 32.04089546 177.5375309 C29.00913526 177.50388752 25.97757395 177.49232834 22.94564438 177.48667526 C21.49193817 177.47995583 20.03824536 177.46471546 18.58472061 177.44078445 C16.55036184 177.40919852 14.51555621 177.41209296 12.48095703 177.41650391 C10.74460495 177.40437363 10.74460495 177.40437363 8.97317505 177.39199829 C5.09284514 178.18550933 4.21358278 179.83150796 2 183 C-0.359375 183.48828125 -0.359375 183.48828125 -2.75 183.3125 C-3.54921875 183.26738281 -4.3484375 183.22226562 -5.171875 183.17578125 C-5.77515625 183.11777344 -6.3784375 183.05976563 -7 183 C-5.7019584 179.61066915 -4.21336348 176.44688552 -2.5 173.25 C2.96313271 162.27538828 4.0173739 149.56512029 0.4375 137.75 C-6.24642404 120.36244935 -17.79083062 112.47809532 -34 105 C-34.3125 101.6875 -34.3125 101.6875 -34 98 C-33.18789062 97.5565625 -32.37578125 97.113125 -31.5390625 96.65625 C-28.84249343 95.30644628 -28.84249343 95.30644628 -28.50683594 93.046875 C-28.32581872 90.51470274 -28.31843595 88.03784049 -28.375 85.5 C-28.35566406 84.63246094 -28.33632812 83.76492187 -28.31640625 82.87109375 C-28.33501338 80.46333063 -28.41019592 78.33585772 -29 76 C-31.48701915 74.33057028 -31.48701915 74.33057028 -34 73 C-34.3125 69.3125 -34.3125 69.3125 -34 66 C-32.96101562 65.52691406 -31.92203125 65.05382812 -30.8515625 64.56640625 C-16.01569826 57.62411964 -6.16913674 49.46484959 0 34 C1.86788281 28.43625761 2.31262585 23.15236009 2.25 17.3125 C2.25773437 16.57966797 2.26546875 15.84683594 2.2734375 15.09179688 C2.25830579 10.89652903 1.68275249 7.81290346 0 4 C0 2.68 0 1.36 0 0 Z " fill="#FCFCFC" transform="translate(211,158)"/>
<path d="M0 0 C0.97445572 -0.00563965 1.94891144 -0.0112793 2.95289612 -0.01708984 C4.0256781 -0.01304138 5.09846008 -0.00899292 6.20375061 -0.00482178 C7.33063797 -0.00832642 8.45752533 -0.01183105 9.61856079 -0.01544189 C13.35934025 -0.02427475 17.09993197 -0.0184041 20.8407135 -0.01165771 C23.4314172 -0.01300401 26.02212065 -0.01494424 28.61282349 -0.01745605 C34.04940928 -0.02040951 39.48592401 -0.01629259 44.92250061 -0.0067749 C51.20956304 0.00410455 57.4964957 0.00058854 63.78355497 -0.01042771 C69.82772233 -0.02059493 75.87182616 -0.01952153 81.91600227 -0.01366425 C84.48969605 -0.01232714 87.06339312 -0.01397759 89.63708305 -0.01862335 C93.23101016 -0.02368598 96.82468603 -0.01598154 100.41859436 -0.00482178 C102.02473099 -0.01089447 102.02473099 -0.01089447 103.66331482 -0.01708984 C105.12922813 -0.00863037 105.12922813 -0.00863037 106.62475586 0 C107.89984717 0.00113108 107.89984717 0.00113108 109.2006979 0.002285 C111.37586975 0.25396729 111.37586975 0.25396729 114.37586975 2.25396729 C114.63247069 5.33317861 114.77018479 7.46533722 113.37586975 10.25396729 C114.03586975 10.25396729 114.69586975 10.25396729 115.37586975 10.25396729 C115.37586975 8.93396729 115.37586975 7.61396729 115.37586975 6.25396729 C117.35586975 6.25396729 119.33586975 6.25396729 121.37586975 6.25396729 C122.36586975 8.23396729 122.36586975 8.23396729 123.37586975 10.25396729 C124.03586975 10.25396729 124.69586975 10.25396729 125.37586975 10.25396729 C125.37586975 10.91396729 125.37586975 11.57396729 125.37586975 12.25396729 C125.958526 12.22254639 126.54118225 12.19112549 127.14149475 12.15875244 C143.26882514 11.40753835 157.68232803 12.26063709 170.42274475 23.34771729 C179.82978234 32.52898598 187.48222516 42.88312633 187.7559967 56.52178955 C187.72235408 71.57926799 184.18319758 84.40733323 173.62586975 95.50396729 C169.20087208 99.73258932 164.91602572 102.71110338 159.37586975 105.25396729 C158.68879944 105.64455322 158.00172913 106.03513916 157.2938385 106.43756104 C147.35411372 111.46834994 133.2252155 110.82563033 122.75086975 107.69146729 C109.26159867 102.28814854 99.2627394 92.16860999 93.3719635 79.01177979 C88.7488049 67.17470704 88.94575693 54.06760147 93.37586975 42.25396729 C90.40586975 42.25396729 87.43586975 42.25396729 84.37586975 42.25396729 C83.91180725 43.46052979 83.91180725 43.46052979 83.43836975 44.69146729 C82.37586975 47.25396729 82.37586975 47.25396729 81.37586975 48.25396729 C79.63767245 48.36330027 77.89504837 48.40304677 76.15345764 48.4151001 C75.03882645 48.42470764 73.92419525 48.43431519 72.77578735 48.44421387 C70.95554298 48.45058868 70.95554298 48.45058868 69.098526 48.45709229 C67.86170578 48.46279236 66.62488556 48.46849243 65.35058594 48.47436523 C62.72857015 48.48383208 60.10654238 48.49035587 57.48451233 48.49420166 C54.78873757 48.49859973 52.09328048 48.51253776 49.39759827 48.53521729 C45.5269743 48.56554353 41.65675523 48.57623458 37.786026 48.58209229 C36.57455399 48.59443909 35.36308197 48.60678589 34.11489868 48.61950684 C32.99711533 48.61650574 31.87933197 48.61350464 30.72767639 48.6104126 C29.24661156 48.61588104 29.24661156 48.61588104 27.73562622 48.62145996 C26.95690659 48.50018738 26.17818695 48.37891479 25.37586975 48.25396729 C23.05050912 44.76592633 23.04129077 43.35255975 23.37586975 39.25396729 C24.03586975 37.93396729 24.69586975 36.61396729 25.37586975 35.25396729 C43.85586975 34.92396729 62.33586975 34.59396729 81.37586975 34.25396729 C81.37586975 33.26396729 81.37586975 32.27396729 81.37586975 31.25396729 C80.70823608 31.26284973 80.04060242 31.27173218 79.35273743 31.28088379 C72.41001438 31.36931202 65.46745104 31.42968305 58.52430725 31.47369385 C55.93244429 31.49382104 53.34062679 31.52112544 50.74891663 31.5557251 C47.02549526 31.6041923 43.30267376 31.62692545 39.57899475 31.64459229 C37.83818634 31.67556 37.83818634 31.67556 36.06221008 31.70715332 C34.44098236 31.70760651 34.44098236 31.70760651 32.78700256 31.70806885 C31.36136993 31.72139252 31.36136993 31.72139252 29.90693665 31.73498535 C26.6052299 31.10751059 25.42204354 29.86944688 23.37586975 27.25396729 C22.88892033 23.91488552 22.92492571 22.05420655 24.58932495 19.10058594 C26.37586975 17.25396729 26.37586975 17.25396729 28.67279053 16.73498535 C30.02181206 16.72166168 30.02181206 16.72166168 31.39808655 16.70806885 C32.4189183 16.68835022 33.43975006 16.66863159 34.49151611 16.64831543 C35.591595 16.64708679 36.69167389 16.64585815 37.8250885 16.64459229 C38.95284195 16.62805603 40.0805954 16.61151978 41.24252319 16.59448242 C44.84952656 16.54584271 48.45610785 16.52459529 52.06336975 16.50396729 C54.50675055 16.47582109 56.95011154 16.44589559 59.39344788 16.41412354 C65.38751146 16.34007948 71.38145557 16.28853071 77.37586975 16.25396729 C76.88086975 15.26396729 76.88086975 15.26396729 76.37586975 14.25396729 C75.39503418 14.25032166 74.41419861 14.24667603 73.40364075 14.24291992 C64.16294972 14.20598851 54.92259251 14.14823637 45.68215561 14.07006454 C40.93144594 14.03054482 36.18092288 13.99837848 31.43006897 13.98297119 C26.84571809 13.96783409 22.26188006 13.93344138 17.67775726 13.88565826 C15.92830613 13.87081396 14.17878179 13.86292453 12.42926788 13.86208344 C9.97959633 13.85972111 7.53135061 13.83270303 5.08192444 13.79986572 C4.3575972 13.80489609 3.63326996 13.80992645 2.88699341 13.81510925 C-0.47977652 13.74521958 -2.33907113 13.46357686 -5.08232117 11.44641113 C-7.28989366 8.30725546 -7.03967795 5.99389657 -6.62413025 2.25396729 C-4.1414186 -0.22874436 -3.42098498 0.00303595 0 0 Z " fill="#96CDEE" transform="translate(196.62413024902344,115.74603271484375)"/>
<path d="M0 0 C0.8468335 0.00563965 1.69366699 0.0112793 2.56616211 0.01708984 C16.21829935 0.28223086 26.68642056 5.79670002 36.6484375 15.0546875 C45.99260204 25.09358546 50.37480045 36.57043198 50.15039062 50.11474609 C49.650241 62.55457864 44.54553249 74.63663767 35.9375 83.75 C24.39433323 94.27400042 11.31081431 98.2022463 -4.0390625 97.62890625 C-17.16588348 96.81900288 -28.38798329 89.81573869 -37.25 80.3125 C-47.11134093 67.71296149 -48.93243208 53.90325254 -47.25 38.3125 C-44.21100292 25.0759794 -36.42649968 14.79126059 -25.25 7.3125 C-16.94484633 2.50554066 -9.60490248 -0.06633874 0 0 Z " fill="#EE7E8D" transform="translate(164.25,127.6875)"/>
<path d="M0 0 C9.3420247 7.71110461 16.68959723 18.15285663 18.31787109 30.38867188 C18.47215656 32.85124769 18.51874053 35.2827367 18.5 37.75 C18.49500488 38.62180908 18.49000977 39.49361816 18.48486328 40.3918457 C18.1823251 51.68695238 13.99867992 61.20549573 7 70 C6.47277344 70.67546875 5.94554687 71.3509375 5.40234375 72.046875 C-0.99724272 79.30442801 -12.2382635 85.86667146 -22 87 C-37.27960905 87.80500473 -50.21398805 86.03191547 -62.484375 75.9609375 C-72.81197542 66.15318274 -78.8801574 53.96067935 -79.47290039 39.63525391 C-79.65826604 24.60226694 -74.37923497 13.53121946 -64.0625 2.6875 C-45.96480988 -14.57491212 -19.74050494 -13.71978414 0 0 Z " fill="#272124" transform="translate(366,272)"/>
<path d="M0 0 C9.00163293 5.57099373 15.77536922 13.43043113 18.62890625 23.74609375 C19.92536419 35.12990427 18.48612461 44.48325148 11.81640625 53.99609375 C6.92798948 60.07590858 1.93791556 64.03905327 -5.37109375 66.74609375 C-6.11746094 67.09414062 -6.86382812 67.4421875 -7.6328125 67.80078125 C-15.74781297 70.60225074 -25.66137992 69.50625816 -33.3046875 65.8671875 C-34.32755859 65.31224609 -34.32755859 65.31224609 -35.37109375 64.74609375 C-36.40234375 64.18921875 -37.43359375 63.63234375 -38.49609375 63.05859375 C-47.37770987 55.91468513 -53.35860959 47.56379929 -54.84765625 36.06640625 C-55.27428788 25.08625538 -52.68088449 16.38706625 -45.68359375 7.87109375 C-33.43099883 -4.89106089 -15.81347845 -8.36264676 0 0 Z " fill="#F2DF40" transform="translate(353.37109375,144.25390625)"/>
<path d="M0 0 C7.8758684 8.08945128 11.59447121 15.47306368 11.5625 26.6875 C11.56008301 27.56946045 11.55766602 28.4514209 11.55517578 29.36010742 C11.34030897 37.02017946 9.44156838 42.68990976 5 49 C4.29810547 50.04027344 4.29810547 50.04027344 3.58203125 51.1015625 C-0.05003071 55.88326873 -4.5946165 58.53644458 -10 61 C-10.69996094 61.32097656 -11.39992187 61.64195312 -12.12109375 61.97265625 C-21.28334675 65.58712303 -31.33644796 65.1478147 -40.3671875 61.3828125 C-50.11839046 56.2612608 -56.57226484 49.11577546 -60.1328125 38.6796875 C-62.49949435 28.63728072 -62.10436507 18.07630478 -57 9 C-56.67257813 8.37996094 -56.34515625 7.75992187 -56.0078125 7.12109375 C-51.68612891 0.07075592 -43.70837361 -5.31374859 -36 -8 C-22.80451061 -11.14178319 -10.68131494 -8.20847033 0 0 Z " fill="#F9E43C" transform="translate(190,283)"/>
<path d="M0 0 C0.71220703 -0.00773437 1.42441406 -0.01546875 2.15820312 -0.0234375 C15.79330552 0.02609966 27.37361925 6.14640031 37.08203125 15.4765625 C46.57192351 26.08730817 50.18188586 37.55566969 49.84375 51.57421875 C48.77018088 65.60517076 41.97176719 77.8784665 31.5625 87.25 C18.56635309 96.6775328 4.28913993 99.26477149 -11.3984375 96.78125 C-25.24220759 93.11286928 -34.84708174 83.88597099 -42.4375 72.25 C-43.0975 71.26 -43.7575 70.27 -44.4375 69.25 C-49.2473159 58.1741854 -49.80045736 41.90088641 -45.4375 30.625 C-38.05609192 16.09026107 -27.61446077 6.41542043 -12.16015625 1.12890625 C-7.99149383 0.14469949 -4.25967437 -0.04600908 0 0 Z M-27.4375 24.25 C-32.79510089 31.81222287 -35.82801916 38.69016951 -35.75 48.0625 C-35.74436035 48.77027588 -35.7387207 49.47805176 -35.73291016 50.20727539 C-35.60440489 55.75399539 -34.95659064 60.30796722 -32.4375 65.25 C-32.05851563 65.99507812 -31.67953125 66.74015625 -31.2890625 67.5078125 C-26.4515816 75.75669611 -18.1589067 82.29149349 -8.8828125 84.8515625 C-0.35257482 86.24147343 7.67340901 85.83727613 15.5625 82.25 C16.31144531 81.93289063 17.06039062 81.61578125 17.83203125 81.2890625 C26.6026495 77.0755798 32.00976863 69.4824647 35.76196289 60.68994141 C37.1134445 56.57078703 37.20066816 52.61772873 37.125 48.3125 C37.11476807 47.43368164 37.10453613 46.55486328 37.09399414 45.64941406 C36.87120106 38.85075371 35.71888141 33.76703825 31.5625 28.25 C31.08941406 27.55003906 30.61632812 26.85007812 30.12890625 26.12890625 C25.05290783 19.43263901 17.09086039 14.71413198 8.99609375 12.5703125 C-4.5849574 10.78275842 -17.97153428 13.83078715 -27.4375 24.25 Z " fill="#252221" transform="translate(164.4375,261.75)"/>
<path d="M0 0 C0.8468335 0.00563965 1.69366699 0.0112793 2.56616211 0.01708984 C16.21829935 0.28223086 26.68642056 5.79670002 36.6484375 15.0546875 C45.99260204 25.09358546 50.37480045 36.57043198 50.15039062 50.11474609 C49.650241 62.55457864 44.54553249 74.63663767 35.9375 83.75 C24.39433323 94.27400042 11.31081431 98.2022463 -4.0390625 97.62890625 C-17.16588348 96.81900288 -28.38798329 89.81573869 -37.25 80.3125 C-47.11134093 67.71296149 -48.93243208 53.90325254 -47.25 38.3125 C-44.21100292 25.0759794 -36.42649968 14.79126059 -25.25 7.3125 C-16.94484633 2.50554066 -9.60490248 -0.06633874 0 0 Z M-27.25 25.3125 C-35.03838741 35.09625939 -35.98884534 44.20028124 -35.25 56.3125 C-33.95105988 65.05783942 -28.32893852 73.08285888 -21.4921875 78.49609375 C-12.03504917 84.69348277 -2.52216923 87.23829772 8.75 85.3125 C18.01287692 82.49830451 26.37340528 77.48350907 31.75 69.3125 C32.348125 68.466875 32.94625 67.62125 33.5625 66.75 C38.08572472 57.46548611 38.6766019 44.93618918 35.8046875 35.0625 C34.62201024 32.62276326 33.34569243 30.50049931 31.75 28.3125 C31.0075 27.24 30.265 26.1675 29.5 25.0625 C21.22607278 16.78857278 11.73816098 12.24841832 0.0625 12 C-11.90378164 12.14973449 -19.17565629 16.62561987 -27.25 25.3125 Z " fill="#282224" transform="translate(164.25,127.6875)"/>
<path d="M0 0 C13.00427957 6.63423743 21.2111784 17.17115514 26.5703125 30.53125 C30.16095436 43.57094939 27.15086853 57.57493848 21.3359375 69.453125 C16.14129994 78.10554278 8.55947949 84.58950538 -0.5390625 88.765625 C-1.22613281 89.15621094 -1.91320312 89.54679687 -2.62109375 89.94921875 C-12.56081853 94.98000765 -26.68971675 94.33728804 -37.1640625 91.203125 C-50.65333358 85.79980626 -60.65219286 75.68026771 -66.54296875 62.5234375 C-70.98202148 51.15774693 -71.46379867 37.05694024 -66.5390625 25.765625 C-59.89137133 10.6053788 -49.21397089 3.14529573 -34.5390625 -3.234375 C-23.46263156 -6.92651865 -10.41252057 -4.645484 0 0 Z M-49.29296875 20.64453125 C-56.03720937 29.0114463 -58.32188444 37.30375972 -57.9765625 48.01953125 C-56.73962063 58.61084604 -51.53695586 66.84886008 -43.5390625 73.765625 C-33.63868844 80.34354606 -25.26189262 81.61406632 -13.5390625 80.765625 C-3.66629149 78.4589028 4.66534238 71.96888575 10.4609375 63.765625 C15.62769553 54.96727985 16.90507669 45.89085169 15.4609375 35.765625 C12.83875947 26.02783126 6.63763165 18.43313514 -1.5390625 12.765625 C-18.18112149 3.32369613 -36.43058971 6.86545704 -49.29296875 20.64453125 Z " fill="#252222" transform="translate(356.5390625,132.234375)"/>
<path d="M0 0 C8.33713115 5.9990848 14.2360668 13.0546683 17 23 C18.11257415 36.13415456 16.15251763 45.64858448 8 56 C4.23954434 59.8568776 1.33334593 60.58169836 -4 61 C-3.52418802 59.68628013 -3.04424851 58.37405454 -2.5625 57.0625 C-2.29566406 56.33160156 -2.02882813 55.60070312 -1.75390625 54.84765625 C-1 53 -1 53 0 52 C-0.0510988 45.93201719 -0.96671201 40.06736988 -5.390625 35.59375 C-11.04482439 30.68202123 -14.9575688 29.58190404 -22.31640625 29.7578125 C-27.75122347 30.24829091 -30.72547381 32.49882085 -34.25 36.4375 C-38.57897032 41.63924659 -39.28002372 45.50050586 -39.125 52.25 C-39.11597656 52.99507813 -39.10695313 53.74015625 -39.09765625 54.5078125 C-39.07418358 56.33868059 -39.03831525 58.16938238 -39 60 C-44.96982062 58.27058121 -47.6614527 56.15358852 -51 51 C-55.6131996 41.33424845 -57.80242423 32.1692838 -55.12890625 21.53515625 C-51.17094793 10.41394223 -45.11358773 3.8600391 -35 -2 C-33.96875 -2.61875 -32.9375 -3.2375 -31.875 -3.875 C-21.56341281 -7.83732286 -9.30879651 -5.19167639 0 0 Z " fill="#F07E8E" transform="translate(355,279)"/>
<path d="M0 0 C3.74137069 1.38233239 7.094129 3.21991648 10.55078125 5.19921875 C11.31688721 5.63121582 12.08299316 6.06321289 12.87231445 6.50830078 C22.70969916 12.08155346 32.46879093 17.79666934 42.20532227 23.54394531 C44.40396017 24.81798975 46.62741554 26.01551536 48.87109375 27.20703125 C51.73828125 29.01171875 51.73828125 29.01171875 52.92578125 32.51171875 C52.73828125 36.01171875 52.73828125 36.01171875 51.01269531 38.05908203 C48.80216434 39.95687365 46.70831741 41.35194977 44.16015625 42.75390625 C43.25773193 43.25647949 42.35530762 43.75905273 41.42553711 44.27685547 C40.45624268 44.80811035 39.48694824 45.33936523 38.48828125 45.88671875 C31.96050158 49.49738543 25.47134234 53.14024675 19.09375 57.01171875 C18.01963867 57.65898926 16.94552734 58.30625977 15.83886719 58.97314453 C13.76253488 60.22926468 11.69383672 61.49810925 9.63378906 62.78076172 C8.68729492 63.34939941 7.74080078 63.91803711 6.765625 64.50390625 C5.93796631 65.0129248 5.11030762 65.52194336 4.25756836 66.04638672 C0.99019265 67.29836885 -0.93770079 67.01010788 -4.26171875 66.01171875 C-6.5391964 62.59550227 -6.5224961 61.33569813 -6.55224609 57.31860352 C-6.5650058 56.15051651 -6.5777655 54.9824295 -6.59091187 53.77894592 C-6.59313751 52.51642502 -6.59536316 51.25390411 -6.59765625 49.953125 C-6.60431305 48.65728989 -6.61096985 47.36145477 -6.61782837 46.02635193 C-6.6298001 43.28340321 -6.63350928 40.54058042 -6.63232422 37.79760742 C-6.63212093 34.28565229 -6.65943173 30.77450554 -6.69386864 27.26274204 C-6.72147483 23.90952383 -6.72028645 20.55645544 -6.72265625 17.203125 C-6.73702728 15.94262833 -6.75139832 14.68213165 -6.76620483 13.38343811 C-6.76005157 12.21219894 -6.75389832 11.04095978 -6.74755859 9.83422852 C-6.75040863 8.80403091 -6.75325867 7.77383331 -6.75619507 6.7124176 C-6.0484999 2.84717381 -4.14856143 0.02149514 0 0 Z " fill="#262021" transform="translate(226.26171875,215.98828125)"/>
<path d="M0 0 C4.20636432 1.40212144 6.04299492 0.57388231 9.9765625 -1.28125 C13.92618669 -2.68420531 17.88915863 -2.60473534 22 -2 C26.84115976 0.33092877 29.70301121 3.14098526 32 8 C33.33113583 16.01169601 31.57886017 21.43451688 27 28 C23.84576477 31.69001164 20.46115684 35.09903719 17 38.5 C16.11054688 39.40492188 15.22109375 40.30984375 14.3046875 41.2421875 C13.44101562 42.10070312 12.57734375 42.95921875 11.6875 43.84375 C10.90761719 44.61912109 10.12773437 45.39449219 9.32421875 46.19335938 C6.78734394 48.16529988 5.17981415 48.74770835 2 49 C0.2890625 48.09375 0.2890625 48.09375 -1.375 46.5 C-2.04789062 45.85933594 -2.72078125 45.21867187 -3.4140625 44.55859375 C-4.26742188 43.71425781 -5.12078125 42.86992187 -6 42 C-7.23633019 40.82353638 -8.47336966 39.64781788 -9.7109375 38.47265625 C-11.05886245 37.17089536 -12.40520056 35.86748949 -13.75 34.5625 C-14.4001709 33.94246094 -15.0503418 33.32242188 -15.72021484 32.68359375 C-20.66000952 27.80125339 -24.29064526 22.9744729 -25.53125 16.0234375 C-25.46248497 10.19560136 -25.06779848 6.51977609 -21 2 C-14.67578397 -3.55764439 -7.42645921 -2.80555126 0 0 Z " fill="#29231D" transform="translate(332,157)"/>
<path d="M0 0 C2.875 0.5 2.875 0.5 4.8125 1.5625 C6.58765155 4.79954106 5.83182233 7.03151905 4.875 10.5 C2.625 13.1875 2.625 13.1875 -0.125 15.5 C-0.74804016 16.19636566 -1.37108032 16.89273132 -2.01300049 17.61019897 C-6.97309893 20.62228143 -11.9731676 20.0727837 -17.66699219 20.04931641 C-18.940737 20.05953827 -20.21448181 20.06976013 -21.52682495 20.08029175 C-25.01474236 20.10703643 -28.50222585 20.10823279 -31.99022579 20.10316515 C-34.90743899 20.10102215 -37.82456505 20.11080209 -40.74175954 20.12037599 C-47.62933855 20.14255647 -54.51669944 20.1434484 -61.40429688 20.13134766 C-68.49420512 20.11928217 -75.58331813 20.14385474 -82.6730907 20.18648779 C-88.77184674 20.22180421 -94.87035069 20.23370896 -100.96920514 20.22721231 C-104.606488 20.22359776 -108.24320429 20.22874375 -111.88039398 20.25664139 C-115.94259075 20.28663281 -120.0031881 20.26778696 -124.06542969 20.24462891 C-125.85655685 20.26756012 -125.85655685 20.26756012 -127.68386841 20.29095459 C-135.32807028 20.19484754 -140.44806574 18.78123354 -146.125 13.5 C-148.11242047 11.14072373 -149.05003996 10.01222693 -149.5 6.9375 C-149.125 4.5 -149.125 4.5 -148 2.6875 C-145.21166183 0.92155249 -143.35771032 1.03818424 -140.125 1.5 C-139.20443141 2.48761275 -139.20443141 2.48761275 -138.26526546 3.49517727 C-135.60297904 5.98898583 -134.41371826 6.00385529 -130.81825256 6.0146637 C-129.2053257 6.03375038 -129.2053257 6.03375038 -127.55981445 6.05322266 C-126.38515625 6.04669678 -125.21049805 6.0401709 -124.00024414 6.03344727 C-122.75923447 6.04206284 -121.51822479 6.05067841 -120.23960876 6.05955505 C-116.83845976 6.07837116 -113.43828456 6.07910873 -110.03715825 6.07023358 C-107.19666653 6.06512239 -104.35626216 6.07241734 -101.51577944 6.07970566 C-94.81390874 6.09670641 -88.11226571 6.09313752 -81.41040039 6.07641602 C-74.4994419 6.05949561 -67.58911507 6.07532699 -60.67822558 6.1076389 C-54.74176267 6.13434197 -48.80549632 6.14160891 -42.86897939 6.13312382 C-39.32466613 6.12819639 -35.78073288 6.1303994 -32.23646736 6.15091133 C-28.28377714 6.17269185 -24.33184722 6.15386149 -20.37915039 6.13110352 C-19.20651642 6.14279572 -18.03388245 6.15448792 -16.82571411 6.16653442 C-10.41213554 6.19679399 -10.41213554 6.19679399 -5.0544281 2.99180603 C-3.125 0.5 -3.125 0.5 0 0 Z " fill="#29292E" transform="translate(322.125,364.5)"/>
<path d="M0 0 C1.50880737 -0.00218285 1.50880737 -0.00218285 3.0480957 -0.00440979 C5.17304381 -0.00275109 7.29800397 0.00880687 9.42285156 0.02954102 C12.67564925 0.05848829 15.9268165 0.05015039 19.1796875 0.03710938 C21.24479959 0.04334708 23.30990653 0.05173827 25.375 0.0625 C26.34800049 0.05956436 27.32100098 0.05662872 28.32348633 0.05360413 C29.23122803 0.0662883 30.13896973 0.07897247 31.07421875 0.09204102 C31.87045654 0.097444 32.66669434 0.10284698 33.48706055 0.1084137 C36.25010818 0.59521575 37.64530718 1.60071207 39.6875 3.49609375 C41.30465523 10.19892337 39.54523086 16.41457226 36.23046875 22.2734375 C31.95192512 28.43670668 25.89251224 32.45065168 18.6875 34.49609375 C9.72717884 35.78176209 2.59837175 33.39797251 -5.0625 28.87109375 C-10.19754884 23.45076442 -14.38223329 16.63547045 -14.625 9.05859375 C-14.66238281 8.29675781 -14.69976562 7.53492188 -14.73828125 6.75 C-13.28419664 -0.94731028 -6.2460658 -0.07211524 0 0 Z " fill="#231F1E" transform="translate(152.3125,303.50390625)"/>
<path d="M0 0 C0.97445572 -0.00563965 1.94891144 -0.0112793 2.95289612 -0.01708984 C4.0256781 -0.01304138 5.09846008 -0.00899292 6.20375061 -0.00482178 C7.33063797 -0.00832642 8.45752533 -0.01183105 9.61856079 -0.01544189 C13.35934025 -0.02427475 17.09993197 -0.0184041 20.8407135 -0.01165771 C23.4314172 -0.01300401 26.02212065 -0.01494424 28.61282349 -0.01745605 C34.04940928 -0.02040951 39.48592401 -0.01629259 44.92250061 -0.0067749 C51.20956304 0.00410455 57.4964957 0.00058854 63.78355497 -0.01042771 C69.82772233 -0.02059493 75.87182616 -0.01952153 81.91600227 -0.01366425 C84.48969605 -0.01232714 87.06339312 -0.01397759 89.63708305 -0.01862335 C93.23101016 -0.02368598 96.82468603 -0.01598154 100.41859436 -0.00482178 C102.02473099 -0.01089447 102.02473099 -0.01089447 103.66331482 -0.01708984 C105.12922813 -0.00863037 105.12922813 -0.00863037 106.62475586 0 C107.89984717 0.00113108 107.89984717 0.00113108 109.2006979 0.002285 C111.37586975 0.25396729 111.37586975 0.25396729 114.37586975 2.25396729 C114.80429399 5.53855315 114.79668799 7.51317537 113.14658356 10.41795444 C111.37586975 12.25396729 111.37586975 12.25396729 109.21910858 12.75453854 C108.37772087 12.75474782 107.53633316 12.7549571 106.66944885 12.75517273 C105.70203262 12.76500687 104.73461639 12.774841 103.73788452 12.78497314 C102.67804855 12.77530518 101.61821259 12.76563721 100.52626038 12.75567627 C99.40898056 12.76107925 98.29170074 12.76648224 97.14056396 12.77204895 C93.43748197 12.78458364 89.73517025 12.76801283 86.03211975 12.75006104 C83.46526549 12.75021591 80.898411 12.751703 78.33155823 12.75447083 C72.94794026 12.75585695 67.56460779 12.74369303 62.18104553 12.72052002 C55.95581084 12.69390969 49.73094882 12.69216283 43.50567675 12.70390838 C37.51860013 12.7146856 31.53169444 12.70839918 25.5446167 12.6943531 C22.99604689 12.68982759 20.4474661 12.68951135 17.89889526 12.6934185 C14.34085905 12.69631954 10.78343777 12.67987593 7.22547913 12.65802002 C6.16564316 12.66252167 5.10580719 12.66702332 4.01385498 12.67166138 C2.56273064 12.65680443 2.56273064 12.65680443 1.08229065 12.64164734 C0.24090294 12.63921744 -0.60048477 12.63678755 -1.46736908 12.63428402 C-4.15072483 12.16110919 -5.04041085 11.44906653 -6.62413025 9.25396729 C-6.93663025 5.69146729 -6.93663025 5.69146729 -6.62413025 2.25396729 C-4.1414186 -0.22874436 -3.42098498 0.00303595 0 0 Z " fill="#221E20" transform="translate(196.62413024902344,115.74603271484375)"/>
<path d="M0 0 C5.46232565 3.22349768 9.43137012 7.22761831 11.99609375 13.08984375 C12.71807057 16.24028804 12.97624156 18.87071788 12.68359375 22.08984375 C12.02359375 22.74984375 11.36359375 23.40984375 10.68359375 24.08984375 C9.96951041 26.07340858 9.29741633 28.07299812 8.68359375 30.08984375 C10.66359375 29.75984375 12.64359375 29.42984375 14.68359375 29.08984375 C9.6882012 34.89094477 4.58505024 37.69165386 -3.10546875 38.4765625 C-14.04381842 38.94421375 -22.49177599 36.59220289 -31.31640625 30.08984375 C-30.65640625 29.75984375 -29.99640625 29.42984375 -29.31640625 29.08984375 C-28.65640625 29.41984375 -27.99640625 29.74984375 -27.31640625 30.08984375 C-27.47367187 29.37441406 -27.6309375 28.65898437 -27.79296875 27.921875 C-28.9636873 21.58776346 -29.5696624 15.39910234 -26.12890625 9.71484375 C-19.69928735 0.87638172 -11.04374192 -4.33927802 0 0 Z " fill="#EB7D8C" transform="translate(343.31640625,308.91015625)"/>
<path d="M0 0 C0.12375 1.175625 0.12375 1.175625 0.25 2.375 C0.72304505 5.03387115 0.72304505 5.03387115 2.53082275 6.14413452 C6.07655935 7.37315668 9.54710835 7.30857936 13.25683594 7.31884766 C14.08647354 7.32889328 14.91611115 7.3389389 15.77088928 7.34928894 C18.50871091 7.38013982 21.24643467 7.39716136 23.984375 7.4140625 C25.88438765 7.43277262 27.78439197 7.45234591 29.68438721 7.4727478 C34.68201798 7.52409151 39.6796757 7.5637053 44.6774292 7.60089111 C49.77851032 7.64091668 54.87947912 7.69201564 59.98046875 7.7421875 C69.9869003 7.83897332 79.99339523 7.92336967 90 8 C89.0409375 8.7115625 89.0409375 8.7115625 88.0625 9.4375 C86.11706694 10.83738726 86.11706694 10.83738726 85 12 C83.40389018 12.09333705 81.80366572 12.11745372 80.20483398 12.11352539 C79.18385117 12.11344986 78.16286835 12.11337433 77.11094666 12.11329651 C76.0005452 12.10813522 74.89014374 12.10297394 73.74609375 12.09765625 C72.61551041 12.0962413 71.48492706 12.09482635 70.32008362 12.09336853 C66.69252935 12.08775019 63.06503576 12.07519458 59.4375 12.0625 C56.98502693 12.05748736 54.5325529 12.05292405 52.08007812 12.04882812 C46.05336455 12.0377748 40.02668661 12.02101884 34 12 C32.08168989 15.53855609 31.56753744 17.93485192 32 22 C33.12688999 23.76718913 33.12688999 23.76718913 35 25 C37.52113371 25.43503036 37.52113371 25.43503036 40.3894043 25.34057617 C41.49031906 25.34034958 42.59123383 25.34012299 43.72550964 25.33988953 C45.50687065 25.31666374 45.50687065 25.31666374 47.32421875 25.29296875 C49.14902519 25.28660149 49.14902519 25.28660149 51.01069641 25.28010559 C54.90318771 25.26328851 58.79516471 25.22562959 62.6875 25.1875 C65.32356024 25.17245713 67.95962858 25.15876804 70.59570312 25.14648438 C77.0639781 25.11337499 83.53195231 25.06314505 90 25 C90.495 26.485 90.495 26.485 91 28 C89 30 89 30 86.6335144 30.24050903 C85.14792526 30.2338472 85.14792526 30.2338472 83.63232422 30.22705078 C81.95080765 30.22682419 81.95080765 30.22682419 80.23532104 30.22659302 C79.02071198 30.21627045 77.80610291 30.20594788 76.5546875 30.1953125 C75.31453888 30.1924826 74.07439026 30.18965271 72.79666138 30.18673706 C69.49875367 30.17742174 66.20104028 30.1594489 62.90319824 30.1373291 C59.5383543 30.11687474 56.17348193 30.10773623 52.80859375 30.09765625 C46.20565277 30.07556519 39.60284229 30.04206483 33 30 C32.85691406 30.61359375 32.71382812 31.2271875 32.56640625 31.859375 C31.9729904 34.10207767 31.09269725 35.96029847 30 38 C26.76924324 38.24410162 24.0631243 38.10654736 21 37 C19.05150239 34.68477835 17.78038948 32.31341097 16.3828125 29.6328125 C12.53212938 22.30128588 6.8942549 18.29201163 0 14 C-1.69103924 12.88032705 -3.37867476 11.75549273 -5.0625 10.625 C-5.81660156 10.12226563 -6.57070312 9.61953125 -7.34765625 9.1015625 C-7.89292969 8.73804688 -8.43820313 8.37453125 -9 8 C-8.375 5.125 -8.375 5.125 -7 2 C-2.54545455 0 -2.54545455 0 0 0 Z " fill="#99D5F8" transform="translate(189,121)"/>
<path d="M0 0 C1.9623484 -0.01418472 1.9623484 -0.01418472 3.96434021 -0.02865601 C5.39428001 -0.02328577 6.82421705 -0.01713268 8.25415039 -0.01025391 C9.72001795 -0.01227492 11.18588454 -0.01518658 12.65174866 -0.01895142 C15.72431 -0.02337492 18.7966097 -0.01694407 21.86914062 -0.00292969 C25.80471389 0.01414747 29.73967272 0.00433103 33.67522335 -0.01364708 C36.70272942 -0.02449727 39.7300903 -0.02103272 42.75760078 -0.0132637 C44.20845169 -0.01126431 45.65931584 -0.01371182 47.11015129 -0.02070236 C49.13983783 -0.02833454 51.16957064 -0.01463593 53.19921875 0 C54.93104652 0.00358017 54.93104652 0.00358017 56.69786072 0.00723267 C59.92916406 0.42219658 61.30201919 1.2038057 63.66430664 3.38818359 C63.35180664 6.76318359 63.35180664 6.76318359 62.66430664 10.38818359 C59.10033276 12.76416618 57.54307299 12.64599252 53.31274414 12.6628418 C52.00128418 12.67237381 50.68982422 12.68190582 49.33862305 12.69172668 C47.90551731 12.69146528 46.47241155 12.69052837 45.03930664 12.68896484 C43.57104369 12.69285152 42.10278185 12.69718613 40.63452148 12.70195007 C37.55782424 12.70941139 34.48124175 12.70912139 31.40454102 12.70385742 C27.45993139 12.69805832 23.51579062 12.71500436 19.57125854 12.7382021 C16.5395228 12.7529253 13.50790041 12.75381317 10.47613525 12.75069237 C9.02165802 12.75120615 7.56717454 12.75645455 6.11273193 12.76650429 C4.08048069 12.77882458 2.0481348 12.77015031 0.01586914 12.76049805 C-1.71928955 12.76144218 -1.71928955 12.76144218 -3.48950195 12.7624054 C-6.33569336 12.38818359 -6.33569336 12.38818359 -8.20922852 11.05241394 C-9.97093897 8.4496767 -9.71712766 6.439658 -9.33569336 3.38818359 C-6.86048529 -0.26327508 -4.18708898 0.00866185 0 0 Z " fill="#211E20" transform="translate(223.335693359375,334.61181640625)"/>
<path d="M0 0 C1.57183044 -0.01902626 1.57183044 -0.01902626 3.17541504 -0.03843689 C4.30153198 -0.03550125 5.42764893 -0.03256561 6.58789062 -0.02954102 C8.32975647 -0.03740379 8.32975647 -0.03740379 10.10681152 -0.04542542 C12.56127116 -0.05184709 15.01576157 -0.05050679 17.47021484 -0.04199219 C21.23004792 -0.03347917 24.98836379 -0.06224921 28.74804688 -0.09399414 C31.132161 -0.09560611 33.51627782 -0.0950287 35.90039062 -0.09204102 C37.02650757 -0.10327499 38.15262451 -0.11450897 39.31286621 -0.12608337 C40.36075317 -0.11670242 41.40864014 -0.10732147 42.48828125 -0.09765625 C43.86916931 -0.097407 43.86916931 -0.097407 45.2779541 -0.09715271 C48.52462796 0.56267192 49.74705601 1.80646166 51.74414062 4.40405273 C51.59620061 8.10255314 51.38608489 9.76210847 48.74414062 12.40405273 C46.39111328 12.66474915 46.39111328 12.66474915 43.40820312 12.67871094 C41.73636963 12.69300896 41.73636963 12.69300896 40.03076172 12.70759583 C38.82242676 12.70668442 37.6140918 12.70577301 36.36914062 12.70483398 C35.13373535 12.70911911 33.89833008 12.71340424 32.62548828 12.71781921 C29.33823532 12.72504654 26.05116453 12.7219276 22.76391602 12.71624756 C20.74614258 12.71655243 18.72866215 12.72659449 16.7109375 12.74023438 C12.84686367 12.76463357 8.98328161 12.76889322 5.11914062 12.76733398 C3.91080566 12.77654373 2.7024707 12.78575348 1.45751953 12.79524231 C-0.21431396 12.78589912 -0.21431396 12.78589912 -1.91992188 12.77636719 C-2.90428223 12.77699661 -3.88864258 12.77762604 -4.90283203 12.77827454 C-6.06758057 12.59303474 -6.06758057 12.59303474 -7.25585938 12.40405273 C-9.5694774 8.9336257 -9.76606666 7.485711 -9.25585938 3.40405273 C-6.28564672 0.49114261 -4.08813796 0.02399341 0 0 Z " fill="#252528" transform="translate(229.255859375,151.595947265625)"/>
<path d="M0 0 C1.57183044 -0.01902626 1.57183044 -0.01902626 3.17541504 -0.03843689 C4.30153198 -0.03550125 5.42764893 -0.03256561 6.58789062 -0.02954102 C8.32975647 -0.03740379 8.32975647 -0.03740379 10.10681152 -0.04542542 C12.56127116 -0.05184709 15.01576157 -0.05050679 17.47021484 -0.04199219 C21.23004792 -0.03347917 24.98836379 -0.06224921 28.74804688 -0.09399414 C31.132161 -0.09560611 33.51627782 -0.0950287 35.90039062 -0.09204102 C37.02650757 -0.10327499 38.15262451 -0.11450897 39.31286621 -0.12608337 C40.36075317 -0.11670242 41.40864014 -0.10732147 42.48828125 -0.09765625 C43.86916931 -0.097407 43.86916931 -0.097407 45.2779541 -0.09715271 C48.52450588 0.56264711 49.74432489 1.80900233 51.74414062 4.40405273 C51.68164062 7.52905273 51.68164062 7.52905273 50.74414062 10.40405273 C47.42235949 12.61857349 46.36527709 12.6598089 42.49414062 12.67871094 C40.88732422 12.69300896 40.88732422 12.69300896 39.24804688 12.70759583 C37.51361328 12.70622871 37.51361328 12.70622871 35.74414062 12.70483398 C34.55691406 12.70911911 33.3696875 12.71340424 32.14648438 12.71781921 C29.63477212 12.72356573 27.12304322 12.72406043 24.61132812 12.71972656 C20.75947839 12.71656532 16.90839542 12.74002741 13.05664062 12.76538086 C10.6191416 12.7676536 8.1816405 12.76835747 5.74414062 12.76733398 C4.58785156 12.77654373 3.4315625 12.78575348 2.24023438 12.79524231 C0.63341797 12.78589912 0.63341797 12.78589912 -1.00585938 12.77636719 C-1.94945312 12.77699661 -2.89304688 12.77762604 -3.86523438 12.77827454 C-6.25585938 12.40405273 -6.25585938 12.40405273 -8.05664062 11.06828308 C-9.94030154 8.45420983 -9.71051092 6.52166334 -9.25585938 3.40405273 C-6.28169688 0.49397567 -4.09034025 0.02400634 0 0 Z " fill="#232327" transform="translate(229.255859375,133.595947265625)"/>
<path d="M0 0 C0.33 0 0.66 0 1 0 C1 2.31 1 4.62 1 7 C1.66 7 2.32 7 3 7 C3.495 9.97 3.495 9.97 4 13 C4.99 13 5.98 13 7 13 C6.46342531 17.56088484 4.69856094 20.32695872 2 24 C1.278125 25.010625 0.55625 26.02125 -0.1875 27.0625 C-5.86994825 33.70071171 -15.55272781 37.43170952 -24.0703125 38.3203125 C-35.822234 38.73704731 -43.92785193 35.40206477 -53.00390625 28.09765625 C-55.15661035 25.83542122 -56.05050927 23.95111985 -57 21 C-56.34 21 -55.68 21 -55 21 C-54.90912109 20.09507812 -54.90912109 20.09507812 -54.81640625 19.171875 C-54.73261719 18.37265625 -54.64882812 17.5734375 -54.5625 16.75 C-54.48128906 15.96109375 -54.40007812 15.1721875 -54.31640625 14.359375 C-54.02365007 12.17635361 -53.57935581 10.1226818 -53 8 C-52.69707031 8.66386719 -52.39414063 9.32773437 -52.08203125 10.01171875 C-48.18732546 18.22056019 -44.09292729 22.87996429 -36 27 C-28.59207207 29.2664913 -21.70066524 28.7227372 -14.6875 25.5 C-8.30519806 21.99842579 -5.07178263 17.84759631 -1.6875 11.5625 C-0.66693189 7.75856431 -0.32435702 3.91789139 0 0 Z " fill="#F1DF43" transform="translate(192,309)"/>
<path d="M0 0 C2.68637711 2.68637711 2.98343234 5.3784777 4 9 C4.99 10.485 4.99 10.485 6 12 C9.82415059 12.49572322 12.06860912 12.62931816 15.3125 10.4375 C17.39603422 7.42795057 18.0863643 4.5240234 19 1 C21 -1 21 -1 23.9375 -1.3125 C27 -1 27 -1 28.66015625 0.2578125 C30.75775739 2.98530553 30.53367492 5.24613287 30.4140625 8.58984375 C29.23288906 15.46516462 24.4048446 20.03644729 19 24 C14.28673928 26.35663036 8.09847497 25.58699547 3 25 C-2.58080089 22.54138497 -6.09305429 18.23250227 -9 13 C-10.25532682 9.23401954 -10.43392093 5.93803712 -10 2 C-7.75948533 -2.34923435 -4.20160432 -0.99310648 0 0 Z " fill="#291F20" transform="translate(155,175)"/>
<path d="M0 0 C3.84724728 1.95859862 7.08727899 4.0682957 9 8 C9.68382741 13.57916331 9.11983315 18.80640878 7 24 C4.9375 25.25 4.9375 25.25 3 26 C2.505 27.485 2.505 27.485 2 29 C0.68 29 -0.64 29 -2 29 C-2.495 27.02 -2.495 27.02 -3 25 C-2.01 25 -1.02 25 0 25 C0 23.02 0 21.04 0 19 C-0.66 18.67 -1.32 18.34 -2 18 C-2.625 15.4375 -2.625 15.4375 -3 13 C-5.74723247 12.58009927 -5.74723247 12.58009927 -9 13 C-9.969375 13.825 -10.93875 14.65 -11.9375 15.5 C-15 18 -15 18 -18.5625 18.5625 C-22.59387527 17.90282041 -23.96498778 16.65563569 -27 14 C-29.29307087 12.85106093 -31.60816267 11.93797542 -34 11 C-34 10.34 -34 9.68 -34 9 C-34.66 8.67 -35.32 8.34 -36 8 C-36.8125 6.125 -36.8125 6.125 -37 4 C-35.85546875 2.38671875 -35.85546875 2.38671875 -34 1 C-31.40625 0.63671875 -31.40625 0.63671875 -28.5 0.6875 C-27.06140625 0.69330078 -27.06140625 0.69330078 -25.59375 0.69921875 C-23 1 -23 1 -20 3 C-17.30791947 2.7166231 -15.24753966 2.12023355 -12.8125 0.9375 C-8.53469783 -0.48843406 -4.46111074 -0.58623571 0 0 Z " fill="#25211F" transform="translate(354,155)"/>
<path d="M0 0 C5.46232565 3.22349768 9.43137012 7.22761831 11.99609375 13.08984375 C12.88729659 16.97872888 13.66184394 20.36351988 11.62109375 23.96484375 C8.58545004 25.72747558 6.10561203 25.46315484 2.68359375 25.08984375 C0.68359375 22.08984375 0.68359375 22.08984375 -0.19140625 18.58984375 C-1.03886001 15.13028656 -1.03886001 15.13028656 -3.06640625 13.15234375 C-6.03721632 11.74946122 -8.068776 11.67525265 -11.31640625 12.08984375 C-14.10074172 14.256962 -14.9266643 16.37383486 -15.87890625 19.71484375 C-16.5703125 22.12890625 -16.5703125 22.12890625 -17.31640625 24.08984375 C-20.07890661 25.47109393 -22.26371724 25.28063681 -25.31640625 25.08984375 C-27.88041402 22.52583598 -27.64274259 21.4020236 -27.69140625 17.83984375 C-27.56135958 11.19879378 -25.19951993 8.21438226 -20.87890625 3.33984375 C-15.16819781 -1.67443683 -7.10295069 -2.7908727 0 0 Z " fill="#2B1F21" transform="translate(343.31640625,308.91015625)"/>
<path d="M0 0 C10.23 0 20.46 0 31 0 C31 0.66 31 1.32 31 2 C31.99 2 32.98 2 34 2 C34 2.66 34 3.32 34 4 C34.66 4 35.32 4 36 4 C36.875 6.5625 36.875 6.5625 37 10 C34.51172508 14.1586048 31.46406342 17.09699289 27 19 C19.34879456 20.7793501 11.6952074 20.1193029 4 19 C3.34 15.7 2.68 12.4 2 9 C2.99 8.34 3.98 7.68 5 7 C4.175 6.21625 3.35 5.4325 2.5 4.625 C0 2 0 2 0 0 Z " fill="#24201E" transform="translate(151,316)"/>
<path d="M0 0 C3.73387639 0.9334691 6.11924711 2.05156918 9.421875 3.94140625 C10.95908203 4.81635742 10.95908203 4.81635742 12.52734375 5.70898438 C13.59082031 6.32064453 14.65429688 6.93230469 15.75 7.5625 C16.82894531 8.17802734 17.90789062 8.79355469 19.01953125 9.42773438 C21.68216602 10.94755688 24.34217696 12.47178344 27 14 C27 14.99 27 15.98 27 17 C24.84448242 18.60986328 24.84448242 18.60986328 21.85546875 20.3203125 C20.78619141 20.93777344 19.71691406 21.55523437 18.61523438 22.19140625 C17.48408203 22.82949219 16.35292969 23.46757812 15.1875 24.125 C13.50817383 25.09373047 13.50817383 25.09373047 11.79492188 26.08203125 C3.50610902 30.83129699 3.50610902 30.83129699 0 32 C0 21.44 0 10.88 0 0 Z " fill="#EC7F8E" transform="translate(232,234)"/>
<path d="M0 0 C4.01656572 0.23172495 6.35341842 0.46657019 9.5 3.0625 C11.9386346 5.27049161 11.9386346 5.27049161 15.4375 5.5625 C19.896891 4.85838563 21.61157564 2.88376541 25 0 C28.3125 -0.375 28.3125 -0.375 31 0 C32 1 32 1 32.125 3.9375 C31.21314943 9.91381795 26.05385785 13.89070478 22 18 C21.48308594 18.58910156 20.96617187 19.17820313 20.43359375 19.78515625 C19.1875 21.1875 19.1875 21.1875 17 23 C12.71060566 22.85951765 10.23632613 19.64325346 7.4375 16.75 C6.95603516 16.27175781 6.47457031 15.79351562 5.97851562 15.30078125 C2.44902095 11.71788294 -0.78251833 8.39229838 -1.25 3.25 C-1 1 -1 1 0 0 Z " fill="#EFEEEE" transform="translate(320,167)"/>
<path d="M0 0 C15.07269262 -0.04669689 30.14537963 -0.08197749 45.21812916 -0.10362434 C52.21648894 -0.11394199 59.21480381 -0.12801161 66.21313477 -0.15087891 C72.96284798 -0.17292335 79.71250481 -0.18455834 86.46225548 -0.18975449 C89.04153873 -0.19345901 91.62081934 -0.20069269 94.20008278 -0.21146011 C97.80377418 -0.22591015 101.40727077 -0.22798065 105.01098633 -0.22705078 C106.08488617 -0.23424133 107.15878601 -0.24143188 108.26522827 -0.24884033 C109.24539413 -0.246091 110.22556 -0.24334167 111.23542786 -0.24050903 C112.08808637 -0.24235262 112.94074488 -0.24419621 113.81924152 -0.24609566 C116 0 116 0 119 2 C119.42839808 5.28438527 119.41989125 7.25964908 117.77197552 10.16524887 C116 12 116 12 113.83485889 12.49219131 C112.98957473 12.48850414 112.14429056 12.48481697 111.27339172 12.48101807 C110.30164001 12.48651672 109.32988831 12.49201538 108.32868958 12.49768066 C107.26414047 12.48329956 106.19959137 12.46891846 105.1027832 12.45410156 C103.98068451 12.45468567 102.85858582 12.45526978 101.70248413 12.45587158 C97.98493768 12.45307969 94.26818803 12.42193406 90.55078125 12.390625 C87.97674498 12.38316658 85.40270303 12.37747177 82.82865906 12.37347412 C76.74060271 12.35974997 70.65287635 12.3282089 64.56494445 12.28807616 C57.63397116 12.24337709 50.70298421 12.22137617 43.77190268 12.20129442 C29.51444757 12.15947643 15.25723398 12.0891128 1 12 C1 11.67 1 11.34 1 11 C38.29 11 75.58 11 114 11 C114.33 8.69 114.66 6.38 115 4 C112.6062554 2.8031277 111.10495338 2.8623458 108.43161011 2.84178162 C107.46964722 2.8319928 106.50768433 2.82220398 105.51657104 2.81211853 C104.4577774 2.80636307 103.39898376 2.8006076 102.30810547 2.79467773 C100.63980682 2.77982834 100.63980682 2.77982834 98.93780518 2.76467896 C95.24762122 2.73299545 91.55742437 2.70827944 87.8671875 2.68359375 C85.3141343 2.66303014 82.76108455 2.64203383 80.20803833 2.62062073 C74.16616293 2.57099457 68.12426996 2.52574516 62.08234608 2.48259836 C55.20452723 2.43323933 48.32675636 2.37831626 41.44898391 2.32291877 C27.29936738 2.20907474 13.14970478 2.10224098 -1 2 C-0.67 1.34 -0.34 0.68 0 0 Z " fill="#27313A" transform="translate(192,116)"/>
<path d="M0 0 C0.66 0 1.32 0 2 0 C2.33 1.98 2.66 3.96 3 6 C3.928125 6.144375 4.85625 6.28875 5.8125 6.4375 C9 7 9 7 12 8 C13.99961564 8.03920815 16.00049364 8.04443347 18 8 C18.33 7.34 18.66 6.68 19 6 C21.62187494 7.04874998 22.79371361 7.64931313 24.25 10.125 C24.4975 10.74375 24.745 11.3625 25 12 C25.99 11.67 26.98 11.34 28 11 C32.0035833 15.84710557 34.70970987 19.80660737 36 26 C35.01 25.34 34.02 24.68 33 24 C31.68 24.99 30.36 25.98 29 27 C28.34 26.67 27.68 26.34 27 26 C27 33.92 27 41.84 27 50 C26.34 50 25.68 50 25 50 C25.08121094 48.86304688 25.16242188 47.72609375 25.24609375 46.5546875 C25.86103022 34.1832961 24.2380939 25.24569891 15.84765625 15.5 C7.50500057 7.52389334 -1.46630891 4.79635121 -12.8125 4.9375 C-13.50537109 4.94201172 -14.19824219 4.94652344 -14.91210938 4.95117188 C-16.60811068 4.96286844 -18.30406703 4.98080076 -20 5 C-20 4.34 -20 3.68 -20 3 C-17.39576408 2.97302863 -14.79180756 2.95317511 -12.1875 2.9375 C-11.44951172 2.92912109 -10.71152344 2.92074219 -9.95117188 2.91210938 C-6.70077932 2.89740172 -4.10595105 2.96468298 -1 4 C-0.67 2.68 -0.34 1.36 0 0 Z " fill="#2A2520" transform="translate(346,136)"/>
<path d="M0 0 C2.40829792 2.40829792 2.25602579 2.99283556 2.265625 6.28125 C2.26820313 7.12300781 2.27078125 7.96476563 2.2734375 8.83203125 C2.26570312 9.71246094 2.25796875 10.59289062 2.25 11.5 C2.25773438 12.38042969 2.26546875 13.26085937 2.2734375 14.16796875 C2.27085937 15.00972656 2.26828125 15.85148438 2.265625 16.71875 C2.26336914 17.49154297 2.26111328 18.26433594 2.25878906 19.06054688 C2 21 2 21 0 23 C-1.875 23.30078125 -1.875 23.30078125 -4 23.3125 C-4.70125 23.32925781 -5.4025 23.34601563 -6.125 23.36328125 C-6.74375 23.24339844 -7.3625 23.12351563 -8 23 C-10.56212287 19.15681569 -10.33108539 15.95306045 -10.3125 11.5 C-10.32861328 10.72785156 -10.34472656 9.95570313 -10.36132812 9.16015625 C-10.3662452 3.48585091 -10.3662452 3.48585091 -8.69995117 1.27539062 C-5.92025649 -0.810079 -3.34199066 -0.30381733 0 0 Z " fill="#262528" transform="translate(181,232)"/>
<path d="M0 0 C2.40829792 2.40829792 2.25602579 2.99283556 2.265625 6.28125 C2.26820313 7.12300781 2.27078125 7.96476563 2.2734375 8.83203125 C2.26570313 9.71246094 2.25796875 10.59289062 2.25 11.5 C2.25773437 12.38042969 2.26546875 13.26085937 2.2734375 14.16796875 C2.27085937 15.00972656 2.26828125 15.85148438 2.265625 16.71875 C2.26336914 17.49154297 2.26111328 18.26433594 2.25878906 19.06054688 C2 21 2 21 0 23 C-3.4375 23.375 -3.4375 23.375 -7 23 C-9.77637787 20.51721611 -10.00449093 18.95733616 -10.3984375 15.21484375 C-10.40636584 13.78906314 -10.39809728 12.36311556 -10.375 10.9375 C-10.38660156 10.21755859 -10.39820313 9.49761719 -10.41015625 8.75585938 C-10.39351613 5.76895744 -10.36816717 3.5594372 -8.69921875 1.0234375 C-5.84616612 -0.69495282 -3.22683667 -0.29334879 0 0 Z " fill="#222021" transform="translate(327,232)"/>
<path d="M0 0 C2 3 2 3 3.15625 5.26953125 C6.86002881 12.27871732 10.94082658 15.5519549 18 19 C18.76054687 19.3815625 19.52109375 19.763125 20.3046875 20.15625 C20.86414063 20.4346875 21.42359375 20.713125 22 21 C20.35 21 18.7 21 17 21 C16.67 21.66 16.34 22.32 16 23 C14.68 23 13.36 23 12 23 C12.33 23.66 12.66 24.32 13 25 C15.52733235 25.65555119 15.52733235 25.65555119 18 26 C18.33 25.34 18.66 24.68 19 24 C19.79664063 24.72123047 19.79664063 24.72123047 20.609375 25.45703125 C23.59465402 27.38380447 25.72350016 27.4958424 29.25 27.6875 C30.32765625 27.75324219 31.4053125 27.81898438 32.515625 27.88671875 C33.33546875 27.92410156 34.1553125 27.96148437 35 28 C32.30489506 30.69510494 30.82777895 30.33022855 27.0625 30.375 C16.42138629 30.16405281 9.20459126 26.70385505 0.99609375 20.09765625 C-1.15661035 17.83542122 -2.05050927 15.95111985 -3 13 C-2.34 13 -1.68 13 -1 13 C-0.83052421 11.58366664 -0.66454493 10.16691467 -0.5 8.75 C-0.4071875 7.96109375 -0.314375 7.1721875 -0.21875 6.359375 C0.06154619 3.73109603 0.06154619 3.73109603 0 0 Z " fill="#F3DF41" transform="translate(138,317)"/>
<path d="M0 0 C0.66 0.66 1.32 1.32 2 2 C2.33 1.34 2.66 0.68 3 0 C3.66 0 4.32 0 5 0 C5.67595315 1.41225926 6.34040059 2.83002905 7 4.25 C7.37125 5.03890625 7.7425 5.8278125 8.125 6.640625 C9 9 9 9 9 13 C10.98 13 12.96 13 15 13 C15 13.66 15 14.32 15 15 C15.66 15 16.32 15 17 15 C16.67 16.32 16.34 17.64 16 19 C15.67 18.34 15.34 17.68 15 17 C14.01 17 13.02 17 12 17 C12 17.66 12 18.32 12 19 C7.39374606 19.32136655 4.66486096 18.91033076 1 16 C1 15.01 1 14.02 1 13 C0.34 13 -0.32 13 -1 13 C-1.12375 12.360625 -1.2475 11.72125 -1.375 11.0625 C-1.58125 10.381875 -1.7875 9.70125 -2 9 C-2.66 8.67 -3.32 8.34 -4 8 C-4 6.68 -4 5.36 -4 4 C-3.01 4 -2.02 4 -1 4 C-0.67 2.68 -0.34 1.36 0 0 Z " fill="#FAE43B" transform="translate(306,182)"/>
<path d="M0 0 C8.58 0 17.16 0 26 0 C23.78576718 5.53558204 23.14915466 6.05575427 18.15234375 8.26953125 C14.87716605 9.38107069 12.41790387 9.50635613 9 9 C5.60101511 7.10441227 2.48165112 5.03312915 0 2 C0 1.34 0 0.68 0 0 Z " fill="#F5F4F4" transform="translate(152,317)"/>
<path d="M0 0 C8.25 0.99 16.5 1.98 25 3 C25 3.99 25 4.98 25 6 C19.31422184 8.52701252 13.11721326 8.79234099 7 8 C4.6328125 6.48046875 4.6328125 6.48046875 3 5 C2.67 5.33 2.34 5.66 2 6 C0.33382885 6.04063832 -1.33388095 6.042721 -3 6 C-3.33 5.01 -3.66 4.02 -4 3 C-2.68 3 -1.36 3 0 3 C0 2.01 0 1.02 0 0 Z " fill="#FBE63A" transform="translate(154,337)"/>
<path d="M0 0 C0.44988281 0.38671875 0.89976562 0.7734375 1.36328125 1.171875 C11.52880341 9.40207731 21.54894566 11.04682154 34.37890625 9.76171875 C35.92594988 9.55232093 37.46518586 9.28554682 39 9 C38 11 38 11 35.25 12.1875 C28.57909797 13.93792264 20.62386152 13.02168277 14.125 10.875 C10.33593995 9.81406319 7.80031195 10.04992201 4 11 C3.46375 11.53625 2.9275 12.0725 2.375 12.625 C1.92125 13.07875 1.4675 13.5325 1 14 C-1.6875 13.6875 -1.6875 13.6875 -4 13 C-4 8.16722534 -3.19658087 8.19658087 0 5 C0.16687448 2.41645782 0.16687448 2.41645782 0 0 Z " fill="#2A251B" transform="translate(139,336)"/>
<path d="M0 0 C2.69007598 2.69007598 3.02729236 5.36855815 4 9 C4.33 9.66 4.66 10.32 5 11 C3.68 11 2.36 11 1 11 C1 9.35 1 7.7 1 6 C0.34 6 -0.32 6 -1 6 C-1 6.66 -1 7.32 -1 8 C-2.32 8 -3.64 8 -5 8 C-5 11.3 -5 14.6 -5 18 C-8.85120397 14.14879603 -10.09540323 11.25307901 -10.3125 5.875 C-10 2 -10 2 -8.9375 -0.0625 C-5.79513385 -1.58299975 -3.30307292 -0.78072633 0 0 Z " fill="#322024" transform="translate(155,175)"/>
<path d="M0 0 C1.51592239 0.00137466 1.51592239 0.00137466 3.06246948 0.0027771 C5.1958283 0.00881337 7.32917863 0.02456008 9.46240234 0.04931641 C12.73696918 0.08587923 16.0104064 0.09033538 19.28515625 0.08984375 C21.35678066 0.09967269 23.42839738 0.11132872 25.5 0.125 C26.48332306 0.12722565 27.46664612 0.12945129 28.47976685 0.13174438 C29.38765961 0.14450409 30.29555237 0.15726379 31.23095703 0.17041016 C32.43197556 0.18184555 32.43197556 0.18184555 33.65725708 0.19351196 C35.6171875 0.4609375 35.6171875 0.4609375 37.6171875 2.4609375 C37.06452713 2.46680374 36.51186676 2.47266998 35.94245911 2.47871399 C30.18322803 2.54271572 24.42455224 2.62715266 18.66577148 2.72338867 C16.51740852 2.75661496 14.36895875 2.78465403 12.22045898 2.80737305 C9.12966974 2.84096081 6.03967438 2.89327971 2.94921875 2.94921875 C1.51144829 2.95880363 1.51144829 2.95880363 0.04463196 2.96858215 C-6.67114178 3.10393624 -6.67114178 3.10393624 -12.3828125 6.4609375 C-12.9857209 8.96455539 -12.9857209 8.96455539 -12.6953125 11.6484375 C-12.65019531 12.54949219 -12.60507813 13.45054687 -12.55859375 14.37890625 C-12.50058594 15.06597656 -12.44257813 15.75304687 -12.3828125 16.4609375 C-14.42313005 13.40046118 -14.69874774 12.52597756 -14.7578125 9.0234375 C-14.78617188 8.26160156 -14.81453125 7.49976563 -14.84375 6.71484375 C-13.26601983 -0.99998939 -6.32041403 -0.09275322 0 0 Z " fill="#4D4515" transform="translate(152.3828125,303.5390625)"/>
<path d="M0 0 C0.33 0 0.66 0 1 0 C1 2.31 1 4.62 1 7 C1.66 7 2.32 7 3 7 C3.33 8.98 3.66 10.96 4 13 C4.99 13 5.98 13 7 13 C6.17701595 19.99536447 1.41672866 24.8471499 -3 30 C-3.33 28.68 -3.66 27.36 -4 26 C-3.01 26 -2.02 26 -1 26 C-1.33 24.35 -1.66 22.7 -2 21 C-1.01 21.33 -0.02 21.66 1 22 C0.67 21.01 0.34 20.02 0 19 C0.99 19 1.98 19 3 19 C2.67 17.35 2.34 15.7 2 14 C1.34 14 0.68 14 0 14 C-0.33 14.99 -0.66 15.98 -1 17 C-2.29355827 18.37195574 -3.62298702 19.71182656 -5 21 C-5.66 20.67 -6.32 20.34 -7 20 C-6.49339844 19.34257812 -6.49339844 19.34257812 -5.9765625 18.671875 C-1.81978964 12.76108816 -0.79338685 7.10495687 0 0 Z " fill="#EAD844" transform="translate(192,309)"/>
<path d="M0 0 C2.375 0.8125 2.375 0.8125 4.375 1.8125 C4.375 2.8025 4.375 3.7925 4.375 4.8125 C-2.375 5.9375 -2.375 5.9375 -4.625 4.8125 C-4.625 24.6125 -4.625 44.4125 -4.625 64.8125 C-7.27165459 62.16584541 -6.88821979 60.92815935 -6.91552734 57.23291016 C-6.92828705 56.06474762 -6.94104675 54.89658508 -6.95419312 53.69302368 C-6.95641876 52.42534149 -6.95864441 51.1576593 -6.9609375 49.8515625 C-6.9675943 48.55431244 -6.9742511 47.25706238 -6.98110962 45.92050171 C-6.99309416 43.17157669 -6.99678933 40.42277743 -6.99560547 37.67382812 C-6.99540238 34.15399728 -7.0226871 30.63497481 -7.05714989 27.11533546 C-7.08476205 23.75656535 -7.08356811 20.3979447 -7.0859375 17.0390625 C-7.10030853 15.77542877 -7.11467957 14.51179504 -7.12948608 13.20986938 C-7.12333282 12.03540253 -7.11717957 10.86093567 -7.11083984 9.65087891 C-7.11368988 8.6176651 -7.11653992 7.58445129 -7.11947632 6.51992798 C-6.35919928 2.35714961 -4.40233836 -0.31445274 0 0 Z M-4.625 5.8125 C-2.625 6.8125 -2.625 6.8125 -2.625 6.8125 Z " fill="#333031" transform="translate(226.625,216.1875)"/>
<path d="M0 0 C0.66 0.33 1.32 0.66 2 1 C-1.50843373 4.88433735 -1.50843373 4.88433735 -4.125 5.5 C-6.1983963 5.81652226 -6.1983963 5.81652226 -7.125 7.9375 C-7.558125 8.9584375 -7.558125 8.9584375 -8 10 C-8.66 10.66 -9.32 11.32 -10 12 C-11.09265382 14.56517557 -12.03881096 17.16816889 -13 19.78515625 C-14 22 -14 22 -16 23 C-16 22.34 -16 21.68 -16 21 C-17.32 21.33 -18.64 21.66 -20 22 C-19.43234379 15.89769576 -17.12340273 12.8851673 -12.59765625 8.8671875 C-11.76105469 8.20976562 -10.92445313 7.55234375 -10.0625 6.875 C-8.81146484 5.88113281 -8.81146484 5.88113281 -7.53515625 4.8671875 C-5.08253333 3.06078726 -2.70634427 1.40125439 0 0 Z " fill="#1F1E21" transform="translate(144,132)"/>
<path d="M0 0 C3.32451521 3.06205348 5.93731652 5.51311418 7 10 C6.01 11.485 6.01 11.485 5 13 C4.70547416 15.38677076 4.5071783 17.78626094 4.375 20.1875 C4.30023438 21.45980469 4.22546875 22.73210937 4.1484375 24.04296875 C4.09945313 25.01878906 4.05046875 25.99460938 4 27 C3.34 27 2.68 27 2 27 C2.04640625 26.13117188 2.0928125 25.26234375 2.140625 24.3671875 C2.43146087 17.18244964 2.43146087 17.18244964 0.3125 10.4375 C-1.98062379 8.02042358 -4.29960193 5.95028749 -7 4 C-6.030625 3.71125 -5.06125 3.4225 -4.0625 3.125 C-0.89335797 2.35785318 -0.89335797 2.35785318 0 0 Z " fill="#E6D845" transform="translate(361,151)"/>
<path d="M0 0 C1.3083078 -0.00953201 2.6166156 -0.01906403 3.96456909 -0.02888489 C5.39971951 -0.02862344 6.83486994 -0.0276863 8.27001953 -0.02612305 C9.7373161 -0.03000894 11.20461154 -0.03434339 12.67190552 -0.03910828 C15.75038291 -0.04657748 18.82874565 -0.04627465 21.90722656 -0.04101562 C25.85064601 -0.03522663 29.79359491 -0.0521343 33.73693657 -0.0753603 C36.76871481 -0.09010127 39.80037992 -0.09096875 42.83218765 -0.08785057 C44.28583837 -0.08836382 45.73949542 -0.09360237 47.19311142 -0.10366249 C49.22766278 -0.11601215 51.26230899 -0.10729627 53.296875 -0.09765625 C54.45444305 -0.09828568 55.61201111 -0.0989151 56.80465698 -0.0995636 C60.07583341 0.31216646 61.48499035 0.93322262 63.77783203 3.2746582 C64.02783203 5.9621582 64.02783203 5.9621582 63.77783203 8.2746582 C62.78783203 6.7896582 62.78783203 6.7896582 61.77783203 5.2746582 C61.11783203 5.2746582 60.45783203 5.2746582 59.77783203 5.2746582 C59.28283203 3.7896582 59.28283203 3.7896582 58.77783203 2.2746582 C57.98269699 2.2746582 57.18756195 2.2746582 56.36833191 2.2746582 C34.83816528 2.2746582 13.30799866 2.2746582 -8.22216797 2.2746582 C-5.46361883 -0.48389093 -3.86321913 0.01539768 0 0 Z " fill="#38383A" transform="translate(223.22216796875,334.725341796875)"/>
<path d="M0 0 C3.9824765 0.46852665 5.48232699 1.43795502 8.1875 4.375 C9 7.625 9 7.625 9.1875 10.375 C8.2903125 9.6015625 8.2903125 9.6015625 7.375 8.8125 C6.653125 8.338125 5.93125 7.86375 5.1875 7.375 C4.1975 7.705 3.2075 8.035 2.1875 8.375 C-0.07421875 8.03515625 -0.07421875 8.03515625 -2.5 7.4375 C-3.30824219 7.24285156 -4.11648438 7.04820312 -4.94921875 6.84765625 C-5.56410156 6.69167969 -6.17898438 6.53570312 -6.8125 6.375 C-4.09212085 0.54561611 -4.09212085 0.54561611 0 0 Z " fill="#DB7B86" transform="translate(334.8125,319.625)"/>
<path d="M0 0 C0.103125 0.639375 0.20625 1.27875 0.3125 1.9375 C0.539375 2.618125 0.76625 3.29875 1 4 C1.99 4.33 2.98 4.66 4 5 C4 5.99 4 6.98 4 8 C25.45 8 46.9 8 69 8 C69 8.33 69 8.66 69 9 C60.4465123 9.06947395 51.89314225 9.12279776 43.33944225 9.15543652 C39.36771373 9.17110056 35.39617807 9.19235199 31.42456055 9.22631836 C27.59256911 9.25888596 23.76076332 9.27684745 19.92864418 9.28463173 C18.46577341 9.29017996 17.00291293 9.30101425 15.54012108 9.31719017 C13.49291304 9.33893079 11.4464746 9.34196847 9.39916992 9.34057617 C7.65043831 9.35056892 7.65043831 9.35056892 5.86637878 9.36076355 C3 9 3 9 1.11177063 7.67793274 C-0.55586213 5.16106863 -0.19573484 2.93602259 0 0 Z " fill="#283B48" transform="translate(214,338)"/>
<path d="M0 0 C-0.15726562 0.84304687 -0.31453125 1.68609375 -0.4765625 2.5546875 C-2.18783192 13.81841608 -1.24480127 22.87594422 4 33 C4.38414062 33.76957031 4.76828125 34.53914063 5.1640625 35.33203125 C5.57785156 36.15767578 5.57785156 36.15767578 6 37 C4 37 4 37 1.5625 34.8125 C-3.92325818 27.87034585 -4.20076671 17.84058788 -4.875 9.3125 C-4.93655273 8.61721191 -4.99810547 7.92192383 -5.06152344 7.20556641 C-5.1796875 5.23828125 -5.1796875 5.23828125 -5 2 C-2 0 -2 0 0 0 Z " fill="#2D240D" transform="translate(301,163)"/>
<path d="M0 0 C0.99 0.33 1.98 0.66 3 1 C3.66 0.67 4.32 0.34 5 0 C7.125 0.9375 7.125 0.9375 9 2 C7.68 2 6.36 2 5 2 C5.33 2.66 5.66 3.32 6 4 C8.52733235 4.65555119 8.52733235 4.65555119 11 5 C11.33 4.34 11.66 3.68 12 3 C12.53109375 3.48082031 13.0621875 3.96164062 13.609375 4.45703125 C16.59465402 6.38380447 18.72350016 6.4958424 22.25 6.6875 C23.32765625 6.75324219 24.4053125 6.81898438 25.515625 6.88671875 C26.33546875 6.92410156 27.1553125 6.96148437 28 7 C25.30489506 9.69510494 23.82777895 9.33022855 20.0625 9.375 C13.11086479 9.27469894 5.5360971 8.20697984 0.1953125 3.36328125 C-0.19914063 2.91339844 -0.59359375 2.46351563 -1 2 C-0.67 1.34 -0.34 0.68 0 0 Z " fill="#E3D348" transform="translate(145,338)"/>
<path d="M0 0 C10.23 0 20.46 0 31 0 C31 0.66 31 1.32 31 2 C31.99 2 32.98 2 34 2 C34 2.66 34 3.32 34 4 C34.66 4 35.32 4 36 4 C35.34 6.31 34.68 8.62 34 11 C33.505 9.515 33.505 9.515 33 8 C31.68 8 30.36 8 29 8 C28.34 5.69 27.68 3.38 27 1 C13.635 1.495 13.635 1.495 0 2 C0 1.34 0 0.68 0 0 Z " fill="#464346" transform="translate(151,316)"/>
<path d="M0 0 C4.75 0.75 4.75 0.75 7 3 C5.96875 3.78375 4.9375 4.5675 3.875 5.375 C-0.06795659 8.708882 -2.36050179 12.53588293 -4.8359375 17.0234375 C-5.22007812 17.67570312 -5.60421875 18.32796875 -6 19 C-6.33 19 -6.66 19 -7 19 C-7.08159574 14.83861737 -6.98248524 11.0527516 -6 7 C-5.360625 6.87625 -4.72125 6.7525 -4.0625 6.625 C-3.381875 6.41875 -2.70125 6.2125 -2 6 C-1.67 5.34 -1.34 4.68 -1 4 C-0.34 4.33 0.32 4.66 1 5 C0.67 3.35 0.34 1.7 0 0 Z " fill="#2F2716" transform="translate(308,144)"/>
<path d="M0 0 C1.88856668 2.83285002 3.50546052 5.6948727 5.125 8.6875 C5.66382813 9.68136719 6.20265625 10.67523438 6.7578125 11.69921875 C7.16773438 12.45847656 7.57765625 13.21773438 8 14 C7.01 14 6.02 14 5 14 C5 14.66 5 15.32 5 16 C4.34 16.66 3.68 17.32 3 18 C2.67 18.66 2.34 19.32 2 20 C0.29115995 18.37660195 -1.37446717 16.70680947 -3 15 C-3 14.34 -3 13.68 -3 13 C-2.34 13 -1.68 13 -1 13 C-0.83052421 11.58366664 -0.66454493 10.16691467 -0.5 8.75 C-0.4071875 7.96109375 -0.314375 7.1721875 -0.21875 6.359375 C0.06154619 3.73109603 0.06154619 3.73109603 0 0 Z " fill="#EEDC43" transform="translate(138,317)"/>
<path d="M0 0 C0.66 0 1.32 0 2 0 C2.33 1.98 2.66 3.96 3 6 C3.928125 6.144375 4.85625 6.28875 5.8125 6.4375 C9 7 9 7 12 8 C13.66362417 8.34820041 15.32995171 8.68404492 17 9 C16.01 9.66 15.02 10.32 14 11 C13.67 11.66 13.34 12.32 13 13 C12.53851563 12.67386719 12.07703125 12.34773437 11.6015625 12.01171875 C1.40715573 5.18186916 -7.99695773 4.56789048 -20 5 C-20 4.34 -20 3.68 -20 3 C-17.39576408 2.97302863 -14.79180756 2.95317511 -12.1875 2.9375 C-11.44951172 2.92912109 -10.71152344 2.92074219 -9.95117188 2.91210938 C-6.70077932 2.89740172 -4.10595105 2.96468298 -1 4 C-0.67 2.68 -0.34 1.36 0 0 Z " fill="#352C0E" transform="translate(346,136)"/>
<path d="M0 0 C0.99 0.33 1.98 0.66 3 1 C5.28020848 6.64051572 5.21802745 11.98001986 5 18 C4.34 17.34 3.68 16.68 3 16 C2.01 16.33 1.02 16.66 0 17 C-0.89316269 11.06390334 -0.97040422 5.93024803 0 0 Z " fill="#FBE63D" transform="translate(366,165)"/>
<path d="M0 0 C5.94 0.33 11.88 0.66 18 1 C18 1.33 18 1.66 18 2 C13.71 2 9.42 2 5 2 C5.33 3.32 5.66 4.64 6 6 C6.06624507 7.74886981 6.08552595 9.50002748 6.0625 11.25 C6.05347656 12.14203125 6.04445313 13.0340625 6.03515625 13.953125 C6.02355469 14.62859375 6.01195312 15.3040625 6 16 C5.34 16.33 4.68 16.66 4 17 C4.04125 15.88625 4.0825 14.7725 4.125 13.625 C4.41121859 9.95633975 4.41121859 9.95633975 2 8 C-0.57061311 7.35232207 -0.57061311 7.35232207 -3 7 C-2.01 6.67 -1.02 6.34 0 6 C0 4.02 0 2.04 0 0 Z " fill="#97B2CC" transform="translate(323,358)"/>
<path d="M0 0 C0.66 0 1.32 0 2 0 C2.08845016 3.14565046 2.14086835 6.29097375 2.1875 9.4375 C2.21263672 10.31599609 2.23777344 11.19449219 2.26367188 12.09960938 C2.32846443 17.95253673 2.00451144 23.82231224 -1 29 C-3.10864258 30.24780273 -3.10864258 30.24780273 -5 31 C-4.52269162 29.5410574 -4.04308958 28.08286504 -3.5625 26.625 C-3.29566406 25.81289063 -3.02882812 25.00078125 -2.75390625 24.1640625 C-2 22 -2 22 -1 20 C-0.84876169 18.4804236 -0.75118307 16.95527498 -0.68359375 15.4296875 C-0.64169922 14.53378906 -0.59980469 13.63789063 -0.55664062 12.71484375 C-0.49766602 11.30912109 -0.49766602 11.30912109 -0.4375 9.875 C-0.37272461 8.45767578 -0.37272461 8.45767578 -0.30664062 7.01171875 C-0.20040928 4.67462908 -0.09836824 2.3374317 0 0 Z " fill="#483D10" transform="translate(201,300)"/>
<path d="M0 0 C3 0 3 0 6 1 C6 2.65 6 4.3 6 6 C4.68 6.33 3.36 6.66 2 7 C2 8.65 2 10.3 2 12 C0.35 12.33 -1.3 12.66 -3 13 C-3.28358209 5.62686567 -3.28358209 5.62686567 -1 2 C-0.67 1.34 -0.34 0.68 0 0 Z " fill="#201E1F" transform="translate(300,144)"/>
<path d="M0 0 C1.0859375 3.7421875 1.0859375 3.7421875 0.3125 6.0625 C-1.19481062 8.28757759 -2.79583696 9.48463791 -5 11 C-5.66 11.66 -6.32 12.32 -7 13 C-9.3828125 13.4140625 -9.3828125 13.4140625 -12.125 13.625 C-13.03507813 13.69976562 -13.94515625 13.77453125 -14.8828125 13.8515625 C-15.93082031 13.92503906 -15.93082031 13.92503906 -17 14 C-14.95603121 11.95603121 -13.31530851 11.09079149 -10.75 9.8125 C-6.08946032 7.29776615 -3.11276668 4.23580408 0 0 Z " fill="#352B14" transform="translate(195,331)"/>
<path d="M0 0 C0.70125 0.309375 1.4025 0.61875 2.125 0.9375 C5.08936657 2.03302678 7.87698108 2.56422992 11 3 C10.67 3.99 10.34 4.98 10 6 C16.93 6 23.86 6 31 6 C25.62268381 9.58487746 21.38813113 9.59424476 15 9 C8.7347408 7.37632719 4.14513052 4.97415662 0 0 Z " fill="#433A11" transform="translate(145,329)"/>
<path d="M0 0 C2.125 0.9375 2.125 0.9375 4 2 C2.23002526 2.81436868 0.45898848 3.6264294 -1.3125 4.4375 C-2.29863281 4.88996094 -3.28476562 5.34242188 -4.30078125 5.80859375 C-9.64272112 8.1664688 -14.00461412 8.18337257 -19.75 8.1875 C-21.07257813 8.20586914 -21.07257813 8.20586914 -22.421875 8.22460938 C-27.68338615 8.23635382 -32.02189132 7.72057582 -37 6 C-34.10765685 5.17361624 -32.11257569 5 -29 5 C-29 5.66 -29 6.32 -29 7 C-26.27001324 6.88562349 -23.5415418 6.75888594 -20.8125 6.625 C-19.65911133 6.57859375 -19.65911133 6.57859375 -18.48242188 6.53125 C-14.19947574 6.31066908 -10.96808117 5.73383298 -7 4 C-5.68 4 -4.36 4 -3 4 C-2.67 3.01 -2.34 2.02 -2 1 C-1.34 0.67 -0.68 0.34 0 0 Z " fill="#2F3741" transform="translate(356,217)"/>
<path d="M0 0 C0 2.31 0 4.62 0 7 C0.66 7.33 1.32 7.66 2 8 C0.02 8.33 -1.96 8.66 -4 9 C-4.33 7.35 -4.66 5.7 -5 4 C-5.99 3.67 -6.98 3.34 -8 3 C-8 3.66 -8 4.32 -8 5 C-9.65 5 -11.3 5 -13 5 C-12.34 4.34 -11.68 3.68 -11 3 C-12.32 2.34 -13.64 1.68 -15 1 C-13.06263299 0.83179449 -11.12510094 0.66548905 -9.1875 0.5 C-7.56908203 0.36078125 -7.56908203 0.36078125 -5.91796875 0.21875 C-3 0 -3 0 0 0 Z " fill="#97ADC5" transform="translate(177,224)"/>
<path d="M0 0 C3.125 0.25 3.125 0.25 5.0625 1.3125 C6.74176907 4.37469653 5.81121125 6.94370941 5.125 10.25 C3.125 7.25 3.125 7.25 2.125 5.25 C0.805 6.57 -0.515 7.89 -1.875 9.25 C-2.23622881 7.93942607 -2.58880311 6.62646376 -2.9375 5.3125 C-3.23333984 4.21615234 -3.23333984 4.21615234 -3.53515625 3.09765625 C-3.64730469 2.48792969 -3.75945312 1.87820313 -3.875 1.25 C-2.875 0.25 -2.875 0.25 0 0 Z " fill="#23272D" transform="translate(321.875,364.75)"/>
<path d="M0 0 C0.639375 0.268125 1.27875 0.53625 1.9375 0.8125 C3.4534375 1.4003125 3.4534375 1.4003125 5 2 C5.93005859 2.39638672 5.93005859 2.39638672 6.87890625 2.80078125 C15.57760558 6.18093882 24.93371894 5.68674996 34 4 C33 6 33 6 30.25 7.1875 C20.14988324 9.83773725 8.92571846 6.78940991 0 2 C0 1.34 0 0.68 0 0 Z " fill="#362E08" transform="translate(144,341)"/>
<path d="M0 0 C0.98033203 -0.020625 1.96066406 -0.04125 2.97070312 -0.0625 C3.90720703 -0.06765625 4.84371094 -0.0728125 5.80859375 -0.078125 C6.67154053 -0.0874707 7.5344873 -0.09681641 8.42358398 -0.10644531 C9.48234741 0.06999512 9.48234741 0.06999512 10.5625 0.25 C11.2225 1.24 11.8825 2.23 12.5625 3.25 C11.88316406 3.09402344 11.20382812 2.93804687 10.50390625 2.77734375 C0.21897422 0.93343163 -8.08283751 1.65456924 -17.14453125 6.9375 C-19.4375 8.25 -19.4375 8.25 -21.4375 8.25 C-21.4375 7.59 -21.4375 6.93 -21.4375 6.25 C-20.7775 6.25 -20.1175 6.25 -19.4375 6.25 C-19.23125 5.610625 -19.025 4.97125 -18.8125 4.3125 C-17.4375 2.25 -17.4375 2.25 -14.375 1.5625 C-12.9209375 1.4078125 -12.9209375 1.4078125 -11.4375 1.25 C-9.06813435 -1.11936565 -3.18181576 0.01666963 0 0 Z " fill="#3E2023" transform="translate(334.4375,272.75)"/>
<path d="M0 0 C5.67114906 2.8934434 9.68756188 6.33365358 14 11 C13.67 11.66 13.34 12.32 13 13 C12.34 13 11.68 13 11 13 C9.61767557 11.37373596 8.28062485 9.7074998 7 8 C6.01 8.495 6.01 8.495 5 9 C4.01 9.33 3.02 9.66 2 10 C2.04125 9.0925 2.0825 8.185 2.125 7.25 C2.00468444 4.1217954 1.6085292 2.61385994 0 0 Z " fill="#22252C" transform="translate(360,135)"/>
<path d="M0 0 C0 0.33 0 0.66 0 1 C-1.25554687 0.98839844 -2.51109375 0.97679687 -3.8046875 0.96484375 C-12.27321259 0.91074797 -20.58656141 0.89659822 -29 2 C-20.57696353 -3.61535765 -9.27300776 -3.29706943 0 0 Z " fill="#DDCF4B" transform="translate(178,276)"/>
<path d="M0 0 C0.99 0.66 1.98 1.32 3 2 C6.14221967 1.68493373 6.14221967 1.68493373 9 1 C3.22159195 7.78334858 -4.47271521 10.511109 -13 12 C-11 9 -11 9 -9.0546875 8.48828125 C-8.33539063 8.43027344 -7.61609375 8.37226563 -6.875 8.3125 C-5.59625 8.209375 -4.3175 8.10625 -3 8 C-2.67 7.01 -2.34 6.02 -2 5 C-1.01 5.33 -0.02 5.66 1 6 C0.649375 5.38125 0.29875 4.7625 -0.0625 4.125 C-0.371875 3.42375 -0.68125 2.7225 -1 2 C-0.67 1.34 -0.34 0.68 0 0 Z " fill="#252C37" transform="translate(188,346)"/>
<path d="M0 0 C1.32 0.66 2.64 1.32 4 2 C4 5.76687864 3.76462683 6.91190305 2 10 C1.67 9.34 1.34 8.68 1 8 C0.34 8 -0.32 8 -1 8 C-1 7.34 -1 6.68 -1 6 C-2.32 6.33 -3.64 6.66 -5 7 C-5.33 6.01 -5.66 5.02 -6 4 C-4.7934375 3.566875 -4.7934375 3.566875 -3.5625 3.125 C-0.8673532 2.26737432 -0.8673532 2.26737432 0 0 Z " fill="#221E1D" transform="translate(365,142)"/>
<path d="M0 0 C0 0.99 0 1.98 0 3 C0.99 3.33 1.98 3.66 3 4 C0.03 4.66 -2.94 5.32 -6 6 C-6 6.66 -6 7.32 -6 8 C-7.32 8 -8.64 8 -10 8 C-10.33 6.35 -10.66 4.7 -11 3 C-9.88625 2.814375 -9.88625 2.814375 -8.75 2.625 C-5.66608976 1.92411131 -3.12089925 0 0 0 Z " fill="#FBE53A" transform="translate(320,149)"/>
<path d="M0 0 C0 0.66 0 1.32 0 2 C0.66 2.33 1.32 2.66 2 3 C2 3.99 2 4.98 2 6 C3.94009522 7.70532323 3.94009522 7.70532323 6 9 C1.15340923 8.40895235 -2.60748167 7.02055843 -7 5 C-6.34 4.67 -5.68 4.34 -5 4 C-5.33 3.01 -5.66 2.02 -6 1 C-3.92446352 0.4465236 -2.15634036 0 0 0 Z " fill="#2D2D36" transform="translate(149,349)"/>
<path d="M0 0 C0.33 0 0.66 0 1 0 C0.74438677 2.3431213 0.40729228 4.67843403 0 7 C-0.99 7.495 -0.99 7.495 -2 8 C-2.66 7.67 -3.32 7.34 -4 7 C-4.020625 7.598125 -4.04125 8.19625 -4.0625 8.8125 C-5 11 -5 11 -8.4375 12.8125 C-9.613125 13.204375 -10.78875 13.59625 -12 14 C-12.66 13.67 -13.32 13.34 -14 13 C-13.40832031 12.56429687 -12.81664062 12.12859375 -12.20703125 11.6796875 C-7.47818857 8.1156984 -3.63812082 4.6613423 0 0 Z " fill="#3E3510" transform="translate(366,196)"/>
<path d="M0 0 C4.75 0.875 4.75 0.875 7 2 C8.5157861 7.37415073 7.69927585 12.55640643 7 18 C6.34 17.67 5.68 17.34 5 17 C4.69140625 15.14453125 4.69140625 15.14453125 4.5625 12.8125 C4.19562094 8.62340822 3.14584402 5.66581687 1 2 C0.67 1.34 0.34 0.68 0 0 Z " fill="#D87C8A" transform="translate(350,314)"/>
<path d="M0 0 C0.99 0.99 1.98 1.98 3 3 C2.52433594 4.01126953 2.52433594 4.01126953 2.0390625 5.04296875 C0.81297609 8.53224473 0.58180931 11.62440058 0.375 15.3125 C0.26285156 17.19388672 0.26285156 17.19388672 0.1484375 19.11328125 C0.09945313 20.06589844 0.05046875 21.01851562 0 22 C-0.66 22 -1.32 22 -2 22 C-1.97679687 21.11957031 -1.95359375 20.23914063 -1.9296875 19.33203125 C-1.91164063 18.17058594 -1.89359375 17.00914062 -1.875 15.8125 C-1.85179687 14.66394531 -1.82859375 13.51539063 -1.8046875 12.33203125 C-1.99515848 9.08259628 -2.60639873 6.91339479 -4 4 C-2.68 4.33 -1.36 4.66 0 5 C0 3.35 0 1.7 0 0 Z " fill="#E4D54A" transform="translate(365,156)"/>
<path d="M0 0 C0.33 0 0.66 0 1 0 C1.66 7.59 2.32 15.18 3 23 C-1.35469073 18.64530927 -1.14261505 12.96645577 -1.1875 7.125 C-1.1534937 1.1534937 -1.1534937 1.1534937 0 0 Z " fill="#CA7885" transform="translate(300,303)"/>
<path d="M0 0 C0 0.99 0 1.98 0 3 C-1.79036458 3.9765625 -3.58072917 4.953125 -5.37109375 5.9296875 C-7.16618315 6.91410024 -7.16618315 6.91410024 -8 9 C-8.99 9 -9.98 9 -11 9 C-11.309375 9.78375 -11.61875 10.5675 -11.9375 11.375 C-13 14 -13 14 -14 16 C-14.66 16 -15.32 16 -16 16 C-14.30150185 10.59568769 -6.36371545 0 0 0 Z " fill="#DDD04E" transform="translate(149,278)"/>
<path d="M0 0 C0 0.99 0 1.98 0 3 C-1.32 3 -2.64 3 -4 3 C-4 4.65 -4 6.3 -4 8 C-7.68754757 7.50168276 -9.60490662 6.89932357 -12 4 C-11.01 3.67 -10.02 3.34 -9 3 C-7.824375 2.484375 -6.64875 1.96875 -5.4375 1.4375 C-2 0 -2 0 0 0 Z " fill="#25252C" transform="translate(148,345)"/>
<path d="M0 0 C5.94 0.33 11.88 0.66 18 1 C18 1.33 18 1.66 18 2 C14.7 2 11.4 2 8 2 C8 2.66 8 3.32 8 4 C7.01 4 6.02 4 5 4 C4.67 4.66 4.34 5.32 4 6 C2.68 5.34 1.36 4.68 0 4 C0 2.68 0 1.36 0 0 Z " fill="#96AEC7" transform="translate(324,224)"/>
<path d="M0 0 C0.99 0.33 1.98 0.66 3 1 C3.75 2.9375 3.75 2.9375 4 5 C2.61423347 7.77153305 0.65868859 8.48074938 -2 10 C-2.99 10.66 -3.98 11.32 -5 12 C-3.25 7.125 -3.25 7.125 -1 6 C-1 5.01 -1 4.02 -1 3 C-0.67 2.01 -0.34 1.02 0 0 Z " fill="#9BCFEF" transform="translate(320,357)"/>
<path d="M0 0 C0.33 0.99 0.66 1.98 1 3 C0.01 3.66 -0.98 4.32 -2 5 C-2.45375 5.804375 -2.9075 6.60875 -3.375 7.4375 C-5.24415674 10.3850164 -6.8524698 11.54729376 -10 13 C-10.66 12.67 -11.32 12.34 -12 12 C-8.04 8.04 -4.08 4.08 0 0 Z " fill="#DCCF4C" transform="translate(359,184)"/>
<path d="M0 0 C1.32 0 2.64 0 4 0 C3.67 3.63 3.34 7.26 3 11 C-0.918897 6.71370641 -0.918897 6.71370641 -1.3125 3.25 C-1 1 -1 1 0 0 Z " fill="#E4E2E2" transform="translate(320,167)"/>
<path d="M0 0 C0 0.66 0 1.32 0 2 C-1.98 2.66 -3.96 3.32 -6 4 C-5.67 5.32 -5.34 6.64 -5 8 C-7.3125 9.125 -7.3125 9.125 -10 10 C-10.99 9.34 -11.98 8.68 -13 8 C-11.5433323 6.85204994 -10.08461063 5.70670581 -8.625 4.5625 C-7.40683594 3.60537109 -7.40683594 3.60537109 -6.1640625 2.62890625 C-2.67146283 0 -2.67146283 0 0 0 Z " fill="#E9D748" transform="translate(322,143)"/>
<path d="M0 0 C3 0.25 3 0.25 5 2.25 C3.02 2.25 1.04 2.25 -1 2.25 C-1.33 3.9 -1.66 5.55 -2 7.25 C-3.65 6.92 -5.3 6.59 -7 6.25 C-4.24855491 0.35404624 -4.24855491 0.35404624 0 0 Z " fill="#D17683" transform="translate(335,319.75)"/>
<path d="M0 0 C2.0343459 1.41519715 2.90410393 2.54982123 3.421875 4.98046875 C3.66273952 6.98176954 3.83532741 8.9909944 4 11 C3.01 11 2.02 11 1 11 C-1.30441554 7.54337669 -1.25860135 6.05142119 -1 2 C-0.67 1.34 -0.34 0.68 0 0 Z " fill="#F1DD44" transform="translate(195,290)"/>
<path d="M0 0 C0.66 0.99 1.32 1.98 2 3 C1.01 4.485 1.01 4.485 0 6 C-1.29034791 8.96020991 -2.29954714 11.84796213 -3 15 C-3.66 15 -4.32 15 -5 15 C-5.33 15.99 -5.66 16.98 -6 18 C-5.42912225 11.29218641 -2.98548202 5.97096403 0 0 Z " fill="#323B46" transform="translate(123,285)"/>
<path d="M0 0 C0.99 0.33 1.98 0.66 3 1 C3 2.32 3 3.64 3 5 C3.66 5 4.32 5 5 5 C5.33 5.99 5.66 6.98 6 8 C8.49759982 9.69882448 8.49759982 9.69882448 11 11 C10.67 12.32 10.34 13.64 10 15 C1.18451025 5.77448747 1.18451025 5.77448747 0 0 Z " fill="#E3D550" transform="translate(302,190)"/>
<path d="M0 0 C0.66 0.33 1.32 0.66 2 1 C-1.50843373 4.88433735 -1.50843373 4.88433735 -4.125 5.5 C-4.74375 5.665 -5.3625 5.83 -6 6 C-7.1500831 7.96672915 -7.1500831 7.96672915 -8 10 C-8.99 10.495 -8.99 10.495 -10 11 C-10.33 10.01 -10.66 9.02 -11 8 C-9.5433323 6.85204994 -8.08461063 5.70670581 -6.625 4.5625 C-5.40683594 3.60537109 -5.40683594 3.60537109 -4.1640625 2.62890625 C-2 1 -2 1 0 0 Z " fill="#252C35" transform="translate(144,132)"/>
<path d="M0 0 C0.96661363 3.12180401 0.98988909 5.52083795 0.5625 8.75 C0.46066406 9.54921875 0.35882813 10.3484375 0.25390625 11.171875 C0.12822266 12.07679688 0.12822266 12.07679688 0 13 C-0.66 12.67 -1.32 12.34 -2 12 C-4.11683841 12.89163577 -4.11683841 12.89163577 -6 14 C-4.16508812 9.25981099 -2.08058541 4.63586749 0 0 Z " fill="#92AAC1" transform="translate(381,192)"/>
<path d="M0 0 C3 2 3 2 3.51171875 4.3828125 C3.56972656 5.28773438 3.62773437 6.19265625 3.6875 7.125 C3.75324219 8.03507813 3.81898438 8.94515625 3.88671875 9.8828125 C3.92410156 10.58148438 3.96148437 11.28015625 4 12 C2 10 2 10 1.875 7.375 C1.91625 6.59125 1.9575 5.8075 2 5 C1.01 5.495 1.01 5.495 0 6 C-0.65772428 9.02934491 -0.65772428 9.02934491 -1 12 C-1.33 12 -1.66 12 -2 12 C-2.05422947 10.5629191 -2.09289723 9.12524538 -2.125 7.6875 C-2.14820313 6.88699219 -2.17140625 6.08648437 -2.1953125 5.26171875 C-2 3 -2 3 0 0 Z " fill="#F4E44A" transform="translate(367,161)"/>
<path d="M0 0 C0.66 0.33 1.32 0.66 2 1 C2 1.66 2 2.32 2 3 C2.99 3 3.98 3 5 3 C4.67 3.99 4.34 4.98 4 6 C2.68 5.67 1.36 5.34 0 5 C0 8.96 0 12.92 0 17 C-0.33 17 -0.66 17 -1 17 C-1.02684679 14.35409986 -1.04676357 11.70846904 -1.0625 9.0625 C-1.07087891 8.30775391 -1.07925781 7.55300781 -1.08789062 6.77539062 C-1.09652441 4.85005687 -1.05224333 2.92464419 -1 1 C-0.67 0.67 -0.34 0.34 0 0 Z " fill="#494648" transform="translate(318,234)"/>
<path d="M0 0 C0.66 0.33 1.32 0.66 2 1 C2.33278764 7.81598387 2.24201565 12.92122066 -1 19 C-1.33 19 -1.66 19 -2 19 C-2.25 12.375 -2.25 12.375 0 9 C0.24107326 6.71351152 0.24107326 6.71351152 0.125 4.3125 C0.10695312 3.50425781 0.08890625 2.69601562 0.0703125 1.86328125 C0.04710937 1.24839844 0.02390625 0.63351562 0 0 Z " fill="#392F0A" transform="translate(190,306)"/>
<path d="M0 0 C1.32 0.33 2.64 0.66 4 1 C3.67 2.65 3.34 4.3 3 6 C2.67 5.34 2.34 4.68 2 4 C-1.12197478 5.3089572 -1.12197478 5.3089572 -3 8 C-3.99 7.67 -4.98 7.34 -6 7 C-4.02 4.69 -2.04 2.38 0 0 Z " fill="#E07D8D" transform="translate(313,281)"/>
<path d="M0 0 C0.66 0 1.32 0 2 0 C2.75 1.75 2.75 1.75 3 4 C1.4375 6.3125 1.4375 6.3125 -1 8 C-4.25 7.75 -4.25 7.75 -7 7 C-6.401875 6.566875 -5.80375 6.13375 -5.1875 5.6875 C-3.28673187 4.22119316 -1.61243235 2.77367559 0 1 C0 0.67 0 0.34 0 0 Z M-2 8 C-1.34 8.66 -0.68 9.32 0 10 C-0.66 10 -1.32 10 -2 10 C-2 9.34 -2 8.68 -2 8 Z " fill="#3A2425" transform="translate(259,248)"/>
<path d="M0 0 C0.33 1.65 0.66 3.3 1 5 C0.01 5.495 0.01 5.495 -1 6 C-1 6.66 -1 7.32 -1 8 C-1.66 8 -2.32 8 -3 8 C-3.66 8.66 -4.32 9.32 -5 10 C-5.3669579 3.51707705 -5.3669579 3.51707705 -3.625 1.0625 C-2 0 -2 0 0 0 Z " fill="#FBE538" transform="translate(194,323)"/>
<path d="M0 0 C0.33 0 0.66 0 1 0 C1.50146657 7.57771707 0.94998798 12.45783241 -3 19 C-3.66 17.68 -4.32 16.36 -5 15 C-4.52949219 14.45859375 -4.05898438 13.9171875 -3.57421875 13.359375 C-1.73777329 10.60698528 -1.31616146 8.50442793 -0.8125 5.25 C-0.65394531 4.26515625 -0.49539063 3.2803125 -0.33203125 2.265625 C-0.22246094 1.51796875 -0.11289062 0.7703125 0 0 Z " fill="#3F340D" transform="translate(363,165)"/>
<path d="M0 0 C0.85658203 0.30744141 0.85658203 0.30744141 1.73046875 0.62109375 C8.79586515 2.96873739 15.58380566 3.66290026 23 4 C23 4.33 23 4.66 23 5 C7.25512528 5.55353075 7.25512528 5.55353075 0 2 C0 1.34 0 0.68 0 0 Z " fill="#3D3306" transform="translate(318,209)"/>
<path d="M0 0 C0 0.99 0 1.98 0 3 C-1.65 3.33 -3.3 3.66 -5 4 C-5.99 7.465 -5.99 7.465 -7 11 C-7.33 11 -7.66 11 -8 11 C-8.36334661 3.61195219 -8.36334661 3.61195219 -6.8125 1 C-4.44004321 -0.30894168 -2.6664882 -0.21620175 0 0 Z " fill="#492527" transform="translate(153,174)"/>
<path d="M0 0 C2.39614126 -0.05425226 4.79103853 -0.09379027 7.1875 -0.125 C8.19780273 -0.15013672 8.19780273 -0.15013672 9.22851562 -0.17578125 C13.28807807 -0.21538674 16.34998815 0.19979998 20 2 C20 2.33 20 2.66 20 3 C13.84765625 3.09765625 13.84765625 3.09765625 12 3 C11.67 2.67 11.34 2.34 11 2 C9.15108054 1.76636119 7.29511969 1.58696365 5.4375 1.4375 C4.42558594 1.35371094 3.41367187 1.26992188 2.37109375 1.18359375 C1.19740234 1.09271484 1.19740234 1.09271484 0 1 C0 0.67 0 0.34 0 0 Z " fill="#E78496" transform="translate(330,275)"/>
<path d="M0 0 C0.66 0.33 1.32 0.66 2 1 C1.23832543 2.46313772 0.46529293 3.92036661 -0.3125 5.375 C-0.95638672 6.59316406 -0.95638672 6.59316406 -1.61328125 7.8359375 C-3 10 -3 10 -6 12 C-6 8 -6 8 -4.125 6 C-3.42375 5.34 -2.7225 4.68 -2 4 C-0.76487921 1.86690808 -0.76487921 1.86690808 0 0 Z " fill="#272934" transform="translate(378,196)"/>
<path d="M0 0 C1.4540625 0.0309375 1.4540625 0.0309375 2.9375 0.0625 C-0.60434708 3.43526393 -3.4054494 3.43989213 -8.1875 3.375 C-9.42757812 3.37113281 -10.66765625 3.36726562 -11.9453125 3.36328125 C-15.0625 3.0625 -15.0625 3.0625 -17.0625 1.0625 C-16.13566406 1.07410156 -15.20882812 1.08570313 -14.25390625 1.09765625 C-12.45759766 1.11119141 -12.45759766 1.11119141 -10.625 1.125 C-8.83255859 1.14240234 -8.83255859 1.14240234 -7.00390625 1.16015625 C-3.53989841 1.04514935 -3.50926914 0.07161774 0 0 Z " fill="#4B2629" transform="translate(173.0625,196.9375)"/>
<path d="M0 0 C1.18851562 0.00902344 2.37703125 0.01804688 3.6015625 0.02734375 C4.51679688 0.03894531 5.43203125 0.05054688 6.375 0.0625 C6.375 0.3925 6.375 0.7225 6.375 1.0625 C-0.09294133 2.57483701 -5.98090042 3.27682579 -12.625 3.0625 C-7.97457316 0.73728658 -5.31422129 -0.05210021 0 0 Z " fill="#D0C041" transform="translate(334.625,139.9375)"/>
<path d="M0 0 C0.66 0.99 1.32 1.98 2 3 C0 4 0 4 -2 5 C-2.639375 5.37125 -3.27875 5.7425 -3.9375 6.125 C-6.41109822 7.17440531 -8.33953538 7.14780359 -11 7 C-8.90163884 4.90163884 -6.97389739 3.78583001 -4.375 2.375 C-3.55773437 1.92898437 -2.74046875 1.48296875 -1.8984375 1.0234375 C-0.95871094 0.51683594 -0.95871094 0.51683594 0 0 Z " fill="#94A9BF" transform="translate(365,215)"/>
<path d="M0 0 C1.89668064 2.84502097 3.23263478 5.57299885 4.625 8.6875 C5.07101562 9.68136719 5.51703125 10.67523438 5.9765625 11.69921875 C6.31429688 12.45847656 6.65203125 13.21773437 7 14 C5 14 5 14 2.375 11.5 C-0.71046145 7.71782145 -0.40829622 4.73623617 0 0 Z " fill="#3F380E" transform="translate(300,186)"/>
<path d="M0 0 C0.556875 0.144375 1.11375 0.28875 1.6875 0.4375 C2.8321875 0.7159375 2.8321875 0.7159375 4 1 C4.804375 1.226875 5.60875 1.45375 6.4375 1.6875 C9.52682539 2.064247 11.23486261 1.34306673 14 0 C14 0.99 14 1.98 14 3 C10.7 3.66 7.4 4.32 4 5 C3.67 4.34 3.34 3.68 3 3 C2.01 2.67 1.02 2.34 0 2 C0 1.34 0 0.68 0 0 Z " fill="#413610" transform="translate(328,156)"/>
<path d="M0 0 C0 0.66 0 1.32 0 2 C0.66 2 1.32 2 2 2 C2.66 3.98 3.32 5.96 4 8 C3.01 8 2.02 8 1 8 C-0.38671875 6.46875 -0.38671875 6.46875 -1.6875 4.5 C-2.12449219 3.8503125 -2.56148438 3.200625 -3.01171875 2.53125 C-3.50091797 1.77328125 -3.50091797 1.77328125 -4 1 C-2 0 -2 0 0 0 Z " fill="#342914" transform="translate(364,148)"/>
<path d="M0 0 C0.6875 1.6875 0.6875 1.6875 1 4 C-0.1875 6.6875 -0.1875 6.6875 -2 9 C-4.1875 9.8125 -4.1875 9.8125 -6 10 C-4.6302836 6.00499382 -2.74277578 3.19990508 0 0 Z " fill="#29323D" transform="translate(299,144)"/>
<path d="M0 0 C2.64 0.33 5.28 0.66 8 1 C8.33 4.96 8.66 8.92 9 13 C8.01 13.66 7.02 14.32 6 15 C6.02320313 14.22914063 6.04640625 13.45828125 6.0703125 12.6640625 C6.08835938 11.66117188 6.10640625 10.65828125 6.125 9.625 C6.14820313 8.62726563 6.17140625 7.62953125 6.1953125 6.6015625 C6.27216848 3.83737827 6.27216848 3.83737827 4 2 C2.68252676 1.30251417 1.35085807 0.63040043 0 0 Z " fill="#CD7986" transform="translate(178,173)"/>
<path d="M0 0 C0.99 0.66 1.98 1.32 3 2 C2.01 2.495 2.01 2.495 1 3 C0.525625 3.825 0.05125 4.65 -0.4375 5.5 C-2 8 -2 8 -5 9 C-3.90931332 5.22454612 -3.0916909 2.52956528 0 0 Z " fill="#3D2224" transform="translate(321,314)"/>
<path d="M0 0 C1.134375 0.020625 2.26875 0.04125 3.4375 0.0625 C3.7675 0.7225 4.0975 1.3825 4.4375 2.0625 C4.1075 3.0525 3.7775 4.0425 3.4375 5.0625 C-2.3125 3.3125 -2.3125 3.3125 -4.5625 1.0625 C-3.5625 0.0625 -3.5625 0.0625 0 0 Z " fill="#3C3118" transform="translate(180.5625,273.9375)"/>
<path d="M0 0 C3.3 1.65 6.6 3.3 10 5 C10 5.99 10 6.98 10 8 C9.01 8.495 9.01 8.495 8 9 C8 8.01 8 7.02 8 6 C7.05125 5.690625 6.1025 5.38125 5.125 5.0625 C2 4 2 4 0 3 C0 2.01 0 1.02 0 0 Z " fill="#D67C8B" transform="translate(249,243)"/>
<path d="M0 0 C2.40072955 2.88087546 4.47291037 5.56404834 6 9 C5.01 9.495 5.01 9.495 4 10 C2 8.9375 2 8.9375 0 7 C-0.25 3.3125 -0.25 3.3125 0 0 Z " fill="#383012" transform="translate(131,325)"/>
<path d="M0 0 C2.97 0.495 2.97 0.495 6 1 C6.33 3.64 6.66 6.28 7 9 C4.03595495 6.19195732 1.55500981 3.81684226 0 0 Z " fill="#38320E" transform="translate(190,283)"/>
<path d="M0 0 C0 1.98 0 3.96 0 6 C-1.65 6.33 -3.3 6.66 -5 7 C-4.6875 4.625 -4.6875 4.625 -4 2 C-1 0 -1 0 0 0 Z " fill="#211E1A" transform="translate(202,151)"/>
<path d="M0 0 C0.66 0.66 1.32 1.32 2 2 C-0.97 6.95 -0.97 6.95 -4 12 C-5.19907441 7.20370236 -4.42489478 6.13130222 -2 2 C-1.34 1.34 -0.68 0.68 0 0 Z " fill="#9AB0C6" transform="translate(125,145)"/>
<path d="M0 0 C-0.33 0.53625 -0.66 1.0725 -1 1.625 C-2.24091523 4.57217367 -2.20678166 6.82934784 -2 10 C-1.67 10.66 -1.34 11.32 -1 12 C-1.99 12.33 -2.98 12.66 -4 13 C-4.66 12.34 -5.32 11.68 -6 11 C-5.34 11 -4.68 11 -4 11 C-4.226875 9.9275 -4.45375 8.855 -4.6875 7.75 C-5 4 -5 4 -3.6875 1.5625 C-2 0 -2 0 0 0 Z " fill="#9BC9E6" transform="translate(223,133)"/>
<path d="M0 0 C2.64752004 2.57784846 4.94432065 4.91648098 7 8 C6.34 8.66 5.68 9.32 5 10 C2 6.25 2 6.25 2 4 C1.01 4.33 0.02 4.66 -1 5 C-0.67 3.35 -0.34 1.7 0 0 Z " fill="#372025" transform="translate(305,331)"/>
<path d="M0 0 C1.37095624 3.69037278 0.60010967 5.70883835 -0.9375 9.25 C-1.31777344 10.14203125 -1.69804687 11.0340625 -2.08984375 11.953125 C-2.39019531 12.62859375 -2.69054687 13.3040625 -3 14 C-3.66 14 -4.32 14 -5 14 C-3.46527032 9.27775484 -1.76054874 4.64144669 0 0 Z " fill="#8CA2B7" transform="translate(382,323)"/>
<path d="M0 0 C2.30019361 3.45029042 2.43132515 4.94554358 2 9 C1.01 9.66 0.02 10.32 -1 11 C-2.60080151 6.99799622 -1.29279692 3.95443764 0 0 Z " fill="#442728" transform="translate(354,322)"/>
<path d="M0 0 C2.97 0.495 2.97 0.495 6 1 C6 2.32 6 3.64 6 5 C4.68 5 3.36 5 2 5 C1.34 5.66 0.68 6.32 0 7 C0 4.69 0 2.38 0 0 Z " fill="#A8C4DE" transform="translate(323,256)"/>
<path d="M0 0 C0.66 1.32 1.32 2.64 2 4 C-0.93720508 5.52299523 -3.9168649 6.80100302 -7 8 C-6.02133662 6.85373678 -5.04205413 5.70800212 -4.0625 4.5625 C-3.51722656 3.92441406 -2.97195313 3.28632813 -2.41015625 2.62890625 C-1.63204305 1.73008851 -0.84063472 0.84063472 0 0 Z " fill="#90A4B9" transform="translate(373,207)"/>
<path d="M0 0 C0.33 0.99 0.66 1.98 1 3 C-0.9375 5.6875 -0.9375 5.6875 -3 8 C-4.32 7.67 -5.64 7.34 -7 7 C-4.69 4.69 -2.38 2.38 0 0 Z " fill="#E0D146" transform="translate(346,197)"/>
<path d="M0 0 C0 0.99 0 1.98 0 3 C-0.66 3 -1.32 3 -2 3 C-2.268125 3.639375 -2.53625 4.27875 -2.8125 4.9375 C-4 7 -4 7 -7 8 C-4.18918919 0 -4.18918919 0 0 0 Z " fill="#41350F" transform="translate(315,157)"/>
<path d="M0 0 C0.66 0.33 1.32 0.66 2 1 C2 2.65 2 4.3 2 6 C1.34 6 0.68 6 0 6 C-0.33 7.32 -0.66 8.64 -1 10 C-1.33 10 -1.66 10 -2 10 C-2.17942163 6.05272412 -2.09350689 3.4019487 0 0 Z " fill="#FBE63A" transform="translate(305,159)"/>
<path d="M0 0 C0.33 0.66 0.66 1.32 1 2 C1.66 2.33 2.32 2.66 3 3 C0.03 5.475 0.03 5.475 -3 8 C-3.66 7.67 -4.32 7.34 -5 7 C-3.35 4.69 -1.7 2.38 0 0 Z " fill="#2A2E36" transform="translate(129,143)"/>
<path d="M0 0 C1.65 0 3.3 0 5 0 C3.60667426 3.36720387 2.0210714 4.9859524 -1 7 C-0.67 4.69 -0.34 2.38 0 0 Z " fill="#362023" transform="translate(140,144)"/>
<path d="M0 0 C2.6875 -0.3125 2.6875 -0.3125 6 0 C8.875 2.5 8.875 2.5 11 5 C10.01 5.495 10.01 5.495 9 6 C5.26415094 4.52830189 5.26415094 4.52830189 4 2 C1.98330173 0.86649466 1.98330173 0.86649466 0 0 Z " fill="#24323F" transform="translate(176,366)"/>
<path d="M0 0 C0.33 0 0.66 0 1 0 C1.33 2.97 1.66 5.94 2 9 C4.31 9.66 6.62 10.32 9 11 C9 11.33 9 11.66 9 12 C5.625 12.625 5.625 12.625 2 13 C0 11 0 11 -0.1953125 8.3984375 C-0.17210937 7.40070313 -0.14890625 6.40296875 -0.125 5.375 C-0.10695313 4.37210937 -0.08890625 3.36921875 -0.0703125 2.3359375 C-0.04710937 1.56507813 -0.02390625 0.79421875 0 0 Z " fill="#BE6B78" transform="translate(315,323)"/>
<path d="M0 0 C0.66 0 1.32 0 2 0 C1.75 3.375 1.75 3.375 1 7 C-0.98 7.99 -0.98 7.99 -3 9 C-2.01 6.03 -1.02 3.06 0 0 Z " fill="#40340D" transform="translate(199,322)"/>
<path d="M0 0 C0.99 0.33 1.98 0.66 3 1 C2.0022242 3.99332739 1.2477975 4.94766315 -1 7 C-2.32 6.34 -3.64 5.68 -5 5 C-4.34 5 -3.68 5 -3 5 C-2.67 4.01 -2.34 3.02 -2 2 C-1.34 2 -0.68 2 0 2 C0 1.34 0 0.68 0 0 Z " fill="#201D1B" transform="translate(141,343)"/>
<path d="M0 0 C0.93065133 2.60582371 1.14917407 3.64198224 0.0625 6.25 C-0.4634375 7.11625 -0.4634375 7.11625 -1 8 C-2.98 8 -4.96 8 -7 8 C-6.21625 7.236875 -5.4325 6.47375 -4.625 5.6875 C-1.92742283 3.09108195 -1.92742283 3.09108195 0 0 Z " fill="#392124" transform="translate(194,198)"/>
<path d="M0 0 C0.625 1.8125 0.625 1.8125 1 4 C0.01 5.485 0.01 5.485 -1 7 C-2.32 6.67 -3.64 6.34 -5 6 C-3.35 4.02 -1.7 2.04 0 0 Z " fill="#3C310E" transform="translate(195,331)"/>
<path d="M0 0 C0.66 0 1.32 0 2 0 C2 1.65 2 3.3 2 5 C0.35 5.33 -1.3 5.66 -3 6 C-2.42655063 3.13275314 -2.1385485 2.1385485 0 0 Z " fill="#DC7B8B" transform="translate(181,192)"/>
<path d="M0 0 C0.598125 0.763125 1.19625 1.52625 1.8125 2.3125 C3.46959332 4.3483575 5.10297674 6.1978279 7 8 C4 8 4 8 1.3125 5.5 C0.549375 4.675 -0.21375 3.85 -1 3 C-0.67 2.01 -0.34 1.02 0 0 Z " fill="#202C37" transform="translate(298,338)"/>
<path d="M0 0 C0.99 0 1.98 0 3 0 C2.43628586 3.26954202 1.50037734 4.82575883 -1 7 C-2 4 -2 4 -1.0625 1.8125 C-0.5365625 0.9153125 -0.5365625 0.9153125 0 0 Z " fill="#9BB0C8" transform="translate(125,277)"/>
<path d="M0 0 C1.65 1.65 3.3 3.3 5 5 C4.67 5.66 4.34 6.32 4 7 C2.68 6.34 1.36 5.68 0 5 C-0.33 5.99 -0.66 6.98 -1 8 C-0.67 5.36 -0.34 2.72 0 0 Z " fill="#2A303C" transform="translate(203,147)"/>
<path d="M0 0 C0.433125 0.45375 0.86625 0.9075 1.3125 1.375 C3.10798342 3.20024334 3.10798342 3.20024334 6 5 C5.01 5.66 4.02 6.32 3 7 C1.68 5.68 0.36 4.36 -1 3 C-0.67 2.01 -0.34 1.02 0 0 Z " fill="#252E38" transform="translate(175,373)"/>
<path d="M0 0 C0 3.3 0 6.6 0 10 C-0.99 10.495 -0.99 10.495 -2 11 C-1.95875 9.906875 -1.9175 8.81375 -1.875 7.6875 C-1.67925334 3.91107771 -1.67925334 3.91107771 -4 1 C-2 0 -2 0 0 0 Z " fill="#93A9C0" transform="translate(329,364)"/>
<path d="M0 0 C3.63 0 7.26 0 11 0 C10.67 0.99 10.34 1.98 10 3 C3.375 2.25 3.375 2.25 0 0 Z " fill="#29343F" transform="translate(317,355)"/>
<path d="M0 0 C1.32 1.32 2.64 2.64 4 4 C3.34 4.66 2.68 5.32 2 6 C0.68 5.34 -0.64 4.68 -2 4 C-2 3.01 -2 2.02 -2 1 C-1.34 0.67 -0.68 0.34 0 0 Z " fill="#94ACCB" transform="translate(132,346)"/>
<path d="M0 0 C0.99 0.99 1.98 1.98 3 3 C1 5 1 5 -1.1640625 5.1953125 C-2.38222656 5.16050781 -2.38222656 5.16050781 -3.625 5.125 C-4.44226563 5.10695313 -5.25953125 5.08890625 -6.1015625 5.0703125 C-6.72804688 5.04710937 -7.35453125 5.02390625 -8 5 C-8 4.34 -8 3.68 -8 3 C-6.865625 2.87625 -5.73125 2.7525 -4.5625 2.625 C-3.386875 2.41875 -2.21125 2.2125 -1 2 C-0.67 1.34 -0.34 0.68 0 0 Z " fill="#B4D4E6" transform="translate(295,338)"/>
<path d="M0 0 C0.99 0.33 1.98 0.66 3 1 C2.64950425 4.24208567 2.43778819 5.61527704 -0.0625 7.8125 C-0.701875 8.204375 -1.34125 8.59625 -2 9 C-2 7.68 -2 6.36 -2 5 C-1.01 5 -0.02 5 1 5 C0.67 3.35 0.34 1.7 0 0 Z " fill="#E5D64B" transform="translate(190,330)"/>
<path d="M0 0 C0.66 0 1.32 0 2 0 C1.74438677 2.3431213 1.40729228 4.67843403 1 7 C0.01 7.495 0.01 7.495 -1 8 C-0.67 6.68 -0.34 5.36 0 4 C-0.66 3.67 -1.32 3.34 -2 3 C-1.34 2.01 -0.68 1.02 0 0 Z M-4 4 C-2 5 -2 5 -2 5 Z " fill="#2F2E30" transform="translate(177,319)"/>
<path d="M0 0 C0.33 1.98 0.66 3.96 1 6 C-1.64 4.68 -4.28 3.36 -7 2 C-3 0 -3 0 0 0 Z " fill="#D17382" transform="translate(349,308)"/>
<path d="M0 0 C-1.39332574 3.36720387 -2.9789286 4.9859524 -6 7 C-6 5.68 -6 4.36 -6 3 C-5.34 3 -4.68 3 -4 3 C-4 2.34 -4 1.68 -4 1 C-2 0 -2 0 0 0 Z " fill="#3B1E21" transform="translate(312,281)"/>
<path d="M0 0 C-0.99 0 -1.98 0 -3 0 C-3.33 0.99 -3.66 1.98 -4 3 C-6.97 2.505 -6.97 2.505 -10 2 C-6.19832777 -0.53444815 -4.31588991 -1.33941411 0 0 Z " fill="#2D3540" transform="translate(156,264)"/>
<path d="M0 0 C0 1.98 0 3.96 0 6 C-1.32 5.34 -2.64 4.68 -4 4 C-4 3.01 -4 2.02 -4 1 C-2 0 -2 0 0 0 Z " fill="#FAE43F" transform="translate(365,155)"/>
<path d="M0 0 C0.99 0.33 1.98 0.66 3 1 C0.25 5.875 0.25 5.875 -2 7 C-2.125 4.625 -2.125 4.625 -2 2 C-1.34 1.34 -0.68 0.68 0 0 Z " fill="#3D3014" transform="translate(185,324)"/>
<path d="M0 0 C1.98 0 3.96 0 6 0 C5.67 0.99 5.34 1.98 5 3 C2.69 3 0.38 3 -2 3 C-1.34 2.67 -0.68 2.34 0 2 C0 1.34 0 0.68 0 0 Z " fill="#F78091" transform="translate(334,322)"/>
<path d="M0 0 C1.98 0.66 3.96 1.32 6 2 C5.67 3.32 5.34 4.64 5 6 C4.01 5.67 3.02 5.34 2 5 C0.8125 2.4375 0.8125 2.4375 0 0 Z " fill="#3A3538" transform="translate(177,263)"/>
<path d="M0 0 C0.33 0 0.66 0 1 0 C1 2.97 1 5.94 1 9 C-0.98 9.99 -0.98 9.99 -3 11 C-2.67 9.68 -2.34 8.36 -2 7 C-1.67 7 -1.34 7 -1 7 C-0.67 4.69 -0.34 2.38 0 0 Z " fill="#22272F" transform="translate(328,244)"/>
<path d="M0 0 C-0.33 0.99 -0.66 1.98 -1 3 C-2.98 3.33 -4.96 3.66 -7 4 C-7.33 3.34 -7.66 2.68 -8 2 C-5.09399739 0.74335022 -3.20395416 0 0 0 Z " fill="#494015" transform="translate(351,210)"/>
<path d="M0 0 C1.10844919 3.32534757 0.84454356 5.62182575 0 9 C-0.66 8.67 -1.32 8.34 -2 8 C-2.125 5.125 -2.125 5.125 -2 2 C-1.34 1.34 -0.68 0.68 0 0 Z " fill="#253946" transform="translate(222,135)"/>
<path d="M0 0 C3.45925163 1.2491742 6.14693203 2.67527795 9 5 C5.97580475 4.41196203 2.98241547 3.77321882 0 3 C0 2.01 0 1.02 0 0 Z " fill="#412122" transform="translate(313,340)"/>
<path d="M0 0 C1.99097846 2.98646769 2.94124926 5.59687262 4 9 C3.01 9 2.02 9 1 9 C0.67 6.03 0.34 3.06 0 0 Z " fill="#DBCE4C" transform="translate(138,317)"/>
<path d="M0 0 C0.66 0.33 1.32 0.66 2 1 C1.67 1.99 1.34 2.98 1 4 C-2.0625 5.1875 -2.0625 5.1875 -5 6 C-3.35 4.02 -1.7 2.04 0 0 Z " fill="#343944" transform="translate(133,273)"/>
<path d="M0 0 C1.65 0 3.3 0 5 0 C5.33 0.99 5.66 1.98 6 3 C5.01 3.33 4.02 3.66 3 4 C2.01 3.34 1.02 2.68 0 2 C0 1.34 0 0.68 0 0 Z " fill="#402225" transform="translate(240,236)"/>
<path d="M0 0 C0.33 0 0.66 0 1 0 C0.67 2.31 0.34 4.62 0 7 C-0.99 7 -1.98 7 -3 7 C-2.01 4.69 -1.02 2.38 0 0 Z " fill="#302B11" transform="translate(366,196)"/>
<path d="M0 0 C0.33 0 0.66 0 1 0 C1.36923077 5.41538462 1.36923077 5.41538462 -0.5 8.375 C-0.995 8.91125 -1.49 9.4475 -2 10 C-1.125 2.25 -1.125 2.25 0 0 Z " fill="#EEDA4F" transform="translate(369,184)"/>
<path d="M0 0 C0.33 0.66 0.66 1.32 1 2 C0.0625 4.625 0.0625 4.625 -1 7 C-4 3.25 -4 3.25 -4 1 C-2.68 0.67 -1.36 0.34 0 0 Z " fill="#362024" transform="translate(201,157)"/>
<path d="M0 0 C0.53625 0.226875 1.0725 0.45375 1.625 0.6875 C-1.04166667 2.02083333 -3.70833333 3.35416667 -6.375 4.6875 C-7.035 4.0275 -7.695 3.3675 -8.375 2.6875 C-2.95961538 -0.38942308 -2.95961538 -0.38942308 0 0 Z " fill="#C7747F" transform="translate(154.375,142.3125)"/>
</svg>
